<svg xmlns="http://www.w3.org/2000/svg" xmlns:xlink="http://www.w3.org/1999/xlink" viewBox="0 0 1180.6 853.7"><style><![CDATA[.c{enable-background:new}.d{opacity:.5}.e{opacity:.1}.f{fill:#21c87a}.g{fill:#072f70}.h{fill:#fdb797}.i{fill:#e0e0e0}.j{stroke-miterlimit:10}]]></style><ellipse cx="405.6" cy="788.1" rx="405.6" ry="65.6" fill="#e3e6f0" class="c d"/><path d="m150.9 591.8s-3.3-97.8-56.2-153c-22.2-23.2-36.8-52.6-40.6-84.5-1.8-15.1-2.2-30.4-1.2-45.6" fill="none" stroke="#535461" stroke-width="2" class="j"/><path d="M19.7 273.8c3.6 10.9 33.9 36 33.9 36s9.3-38.2 5.6-49.1c-3.6-10.9-15.4-16.8-26.3-13.2s-16.8 15.4-13.2 26.3zM7.2 345.1c9 7.2 48 11.8 48 11.8s-13-37.1-22-44.3c-9.3-6.8-22.3-4.8-29.1 4.4a20.78 20.78 0 0 0 3.1 28.1zm35.6 102.8c11.4 1.7 47.4-14 47.4-14s-29.9-25.5-41.3-27.2-22 6.2-23.6 17.6 6.1 22 17.5 23.6zm44.5 71.8c10.9 3.6 49.1-5.8 49.1-5.8s-25.2-30.2-36.1-33.7c-10.9-3.6-22.7 2.4-26.3 13.3-3.6 10.8 2.4 22.6 13.3 26.2zm10-174.4c-5.3 10.2-39.2 30.2-39.2 30.2s-3.1-39.2 2.2-49.4 17.9-14.2 28.1-8.9c10.3 5.3 14.2 17.8 8.9 28.1zm51 84.5c-8.1 8.1-46.4 17.1-46.4 17.1s8.8-38.3 16.9-46.5c8.1-8.1 21.3-8.2 29.4-.1 8.2 8.2 8.2 21.4.1 29.5z" fill="#072f7a"/><path d="m186.6 518.8c-6.6 9.4-42.9 24.7-42.9 24.7s2.2-39.2 8.8-48.7c6.3-9.6 19.2-12.3 28.8-6s12.3 19.2 6 28.8c-.2.5-.4.8-.7 1.2z" class="f"/><path d="m615.7 525.4s-15.9-5.4-23.5 8.6c-4.1 7.7-4 17 .3 24.6 5 9.1 15.4 20.8 35 19.8 16.6-.9 22.1-13.6 23.6-25.4 1.9-14.3-8.2-27.3-22.5-29.2-4.1-.5-8.2-.1-12.1 1.3l-.8.3z" class="g"/><path d="m595.9 559.9c-4.3-7.6-4.4-16.9-.3-24.6 7.6-14 23.5-8.6 23.5-8.6l.8-.3c6.1-2.2 12.7-2 18.7.4-6.6-4-14.7-4.7-22-2.1l-.8.3s-15.9-5.4-23.5 8.6c-4.1 7.7-4 17 .3 24.6 3.3 6 8.9 13.1 18 17-6.2-3.7-11.3-9-14.7-15.3z" fill="#fff" class="c e"/><path d="m607.5 532.2s5.9 4.6 20.2 0" opacity=".2" class="c"/><path d="m606.3 498.5s10.1 27.3 9.3 34.5l8-.8s-13.5-24-10.1-33.6l-7.2-.1z" class="f"/><path d="m606.3 498.5s10.1 27.3 9.3 34.5l8-.8s-13.5-24-10.1-33.6l-7.2-.1z" opacity=".577" class="c g"/><path d="m647.4 500.8s-15.9-8.1-23-1.4-8.2 23.9-8.2 23.9 26 3.5 31.2-22.5z" class="f"/><path d="m647.4 500.8s-15.9-8.1-23-1.4-8.2 23.9-8.2 23.9 26 3.5 31.2-22.5z" class="c e g"/><g fill="none" class="j"><path d="m616.3 523.3s4.2-19.9 31.2-22.5" stroke="#21c87a"/><path d="m159.8 404.1s3.2-52.9-22.4-85.3c-10.9-13.6-17-30.3-17.6-47.6-.2-8.2.4-16.5 1.7-24.6" stroke="#535461" stroke-width="2"/></g><g fill="#072f7a"><path d="M105.4 226c1.4 6.1 16.4 21.1 16.4 21.1s7-20.1 5.6-26.2-7.4-9.9-13.5-8.5-9.9 7.5-8.5 13.6zM95 263.8c4.5 4.3 25.3 8.8 25.3 8.8s-5.1-20.7-9.6-25-11.6-4.2-15.9.2c-4.4 4.5-4.3 11.6.2 16z"/><use xlink:href="#G"/><use xlink:href="#H"/><use xlink:href="#I"/><use xlink:href="#J"/></g><use xlink:href="#K" class="f"/><use xlink:href="#K" fill="#fff" class="c d"/><linearGradient id="A" x1="928.11" x2="928.11" y1="343.96" y2="0" gradientUnits="userSpaceOnUse"><stop offset="0" stop-color="gray" stop-opacity=".25"/><stop offset=".54" stop-color="gray" stop-opacity=".12"/><stop offset="1" stop-color="gray" stop-opacity=".1"/></linearGradient><path d="M675.7 0v344h504.9V0z" fill="url(#A)"/><path d="M683.1 15.6h492.1v322.1H683.1z" fill="#fff"/><path d="M683.1.3h492.1V24H683.1z" fill="#eee"/><circle cx="701.9" cy="11.8" r="5.8" fill="#ff5252"/><circle cx="717.7" cy="11.8" r="5.8" fill="#ff0"/><circle cx="733.5" cy="11.8" r="5.8" fill="#69f0ae"/><g class="g c"><path d="M702 61.9h183.4v7.6H702zm0 15.3h183.4v7.6H702zm0 15.3h183.4v7.6H702zm63.2 15.3h120.2v7.6H765.2zM702 123.1h96.5v7.6H702zm52.1 15.3h74.3v7.6h-74.3z" class="d"/><path d="M909.7 115.4h216v124.3h-216z" opacity=".58"/></g><linearGradient  x1="1015.1" x2="1015.1" y1="231.08" y2="192.64" gradientUnits="userSpaceOnUse"><stop offset="0" stop-color="gray" stop-opacity=".25"/><stop offset=".54" stop-color="gray" stop-opacity=".12"/><stop offset="1" stop-color="gray" stop-opacity=".1"/></linearGradient><path d="M1017.5 212.2h.8l.7.1h-.3l-1.2-.1zm0 .2h.8l.7.1h-.3l-1.2-.1z" fill="#f0e4e4"/><path d="M353.5 674.3H274v-44.8h79.5v44.8zm-76.1-3.4h72.8v-38.1h-72.8v38.1z" opacity=".2" class="c f"/><linearGradient id="C" x1="277.6" x2="277.6" y1="610.27" y2="153.22" gradientUnits="userSpaceOnUse"><stop offset="0" stop-color="gray" stop-opacity=".25"/><stop offset=".54" stop-color="gray" stop-opacity=".12"/><stop offset="1" stop-color="gray" stop-opacity=".1"/></linearGradient><path d="M221.1 607.1c5 2.9 10.3 4.1 15.7 2.3 1.4-.5 2.8-1.1 4.1-1.8 51 1.1 98.2.6 100.1-4.9 3-9.1-16-53.9-25.6-75.6a24.38 24.38 0 0 0 7-7.3c13.3 15.2 38.1 34.9 52.8 35.9 0 0 21.5 51.1 45.7 43s26.9-51.1 14.8-56.4L355 491.1v-84.7c2.5-4.9 3.6-10.3 3.4-15.7v-3l-2.7-24.2s-.1-.8-.5-2.3c-6-23.3-19.4-39-38.2-41.3.9-1.7 1.5-3.5 1.6-5.4.4-4.5-1.5-9.1-.4-13.5 1.2-5.1 6-8.5 9.9-12 8.4-7.6 13.6-18 18.7-28.1 4.8-9.6 9.8-19.5 11-30.2s-2-22.6-10.8-28.9c-6.8-4.9-16.4-6.2-21.3-13-2.2-3.1-3.1-6.8-4.6-10.3-4.4-9.9-13.7-16.9-23.9-20.6-35.7-12.9-79.5 1.9-102.3 31.6-7.4 9.7-12.8 20.8-18.1 31.8L157.6 261c-3.3 6.8-6.5 15.4-2.1 21.5 2.2 3 5.9 4.9 7.4 8.3 2 4.5-.5 10.4 2.4 14.4 1.6 2.2 4.4 3.1 6.8 4.3 3.2 1.8 6.1 4.3 8.3 7.3l-42.2 32.7c-6.2 4.8-10.1 11.9-10.9 19.6l-4.2 41.6c-1.3 4.7-2 9.6-1.9 14.5-.1 4.4.4 9.2 2.6 13l.9-.2c1 29.1 2.7 71.1 4.5 78.8 1 4.6 7.3 12.7 15.8 21.1l-3 8.5h1l-1 2.7h2c-8.5 30.6-31.5 53.7-31.5 53.7l108.6 4.3zm-50.2-141.6v-32.7c4.9.8 8.5 2.5 9.7 5.6l-9.7 27.1zm14.3-142.1l.2.2h-.1l-.1-.2z" fill="url(#C)"/><path d="m306.5 397.5s2.5 90.6 5.1 102.1 39.6 46 58.7 47.3c0 0 20.4 48.5 43.4 40.8s25.5-48.5 14-53.6l-76.5-48.5v-97l-44.7 8.9z" class="h"/><path d="m308.4 508.6s33.2 71.5 29.4 83-217 0-217 0 39.6-39.6 31.9-83h155.7z" fill="#565171"/><path d="m282.9 296.7s-5.1 49.8 3.8 61.3-35.7 17.9-39.5 17.9-44.7-14-52.3-17.9-14-31.9-14-31.9 38.3 7.7 49.8-37l52.2 7.6z" class="h"/><path d="m296.2 169.1c9.7 3.5 18.6 10.2 22.7 19.6 1.4 3.3 2.3 6.9 4.4 9.8 4.6 6.5 13.7 7.7 20.2 12.4 8.3 6 11.4 17.3 10.2 27.4s-5.8 19.5-10.4 28.7c-4.8 9.6-9.8 19.4-17.8 26.7-3.7 3.4-8.2 6.5-9.4 11.4-1 4.2.8 8.6.4 12.9-.9 10.6-13.6 15.5-24.2 16.7-4.6.5-9.9.5-13.1-2.8-1.7-1.7-2.5-4-3.5-6.1-7.2-14.6-24.9-20.5-39.4-13.3-5.6 2.8-10.2 7.3-13.1 12.8-2.5 4.8-3.9 10.6-8.5 13.5-6.9 4.5-16.2-.8-21.3-7.2s-8.8-14.6-16.1-18.5c-2.3-1.2-5-2-6.5-4.1-2.8-3.8-.4-9.4-2.3-13.6-1.4-3.2-4.9-5-7-7.8-4.2-5.9-1.2-14 2-20.5l18.2-37.7c5-10.4 10.1-21 17.2-30.2 21.8-28.3 63.4-42.4 97.3-30.1z" fill="#8f5a6a"/><path d="m249.7 366.9s-49.8 0-62.5-46l-41.9 32.5c-5.8 4.5-9.6 11.3-10.3 18.6l-4 39.5s-4.5 14.7.6 23.6c0 0 53-13.4 54.2 1.9l-37 103.4s57.4 1.3 72.8-8.9c0 0 62.5 12.8 77.9-1.3s30.6-12.8 17.9-44.7c0 0 25.5-25.5 14-61.3s-.6.6-.6.6 24.9-12.1 23.6-35.1l-2.5-23s-.1-.8-.5-2.1c-7.8-30.3-28.7-47-58.1-36.3-8.6 3.1-17.4-.5-17.4-.5s9.5 41.7-26.2 39.1z" class="c e"/><use xlink:href="#H" fill="#fff" class="c d"/><path d="m249.7 364.4s-49.8 0-62.5-46l-41.9 32.5c-5.8 4.5-9.6 11.3-10.3 18.6l-4 39.5s-4.5 14.7.6 23.6c0 0 53-13.4 54.3 1.9l-37 103.4s57.4 1.3 72.8-8.9c0 0 62.5 12.8 77.9-1.3s30.6-12.8 17.9-44.7c0 0 25.5-25.5 14-61.3s-.6.6-.6.6 24.9-12.1 23.6-35.1l-2.5-23s-.1-.8-.5-2.1c-7.8-30.3-28.7-47-58.1-36.3-8.6 3.1-17.4-.5-17.4-.5s9.4 41.6-26.3 39.1z" fill="#db9e00"/><path d="m131.6 407.8s2.6 90.6 5.1 102.1c2.6 11.5 39.6 45.9 58.7 47.2 0 0 20.4 48.5 43.4 40.8s25.5-48.5 14-53.6l-76.6-48.5v-97l-44.6 9z" class="h"/><path d="m186.5 411s-29.3 19.9-54.9 18.3c0 0-2.6-34.2 5.1-36.1s40.9-.1 49.8 17.8z" class="c e"/><path d="m186.5 409.7s-29.3 19.9-54.9 18.3c0 0-2.6-34.2 5.1-36.1s40.9-.1 49.8 17.8z" fill="#cd8e00"/><path d="m228 291.6 52.3 7.7s-1.2 11.5-1.4 24.8c-20.7 8.7-44.7 4.9-61.6-10 4.4-5.5 8.2-12.7 10.7-22.5z" class="c e"/><circle cx="258.6" cy="267.4" r="58.7" class="h"/><path d="m243.2 256.1c2.4 1.1 5.2 1.1 7.9 1.1 10.4-.1 20.8-.5 31.1-1.1 7.9-.5 16.2-1.5 22.3-6.5 8.2-6.8 9.5-19.5 5.2-29.2s-12.8-16.9-21.9-22.4c-5.1-3.3-10.7-5.8-16.5-7.5-16.8-4.6-35.4 1-48.8 12.3s-21.9 27.4-26.4 44.2c-1.6 5.8-3.6 12.8-9.3 14.5 3.8 6.4 13.2 7.4 20 4.2 9.9-4.7 15-22.8 23.9-25.6 9.8-3.1 4 12.1 12.5 16z" class="c e"/><path d="m243.2 254.8c2.4 1.1 5.2 1.1 7.9 1.1 10.4-.1 20.8-.5 31.1-1.1 7.9-.5 16.2-1.5 22.3-6.5 8.2-6.8 9.5-19.5 5.2-29.2s-12.8-16.9-21.9-22.4c-5.1-3.2-10.7-5.7-16.5-7.4-16.8-4.6-35.4 1-48.8 12.3s-21.9 27.4-26.4 44.2c-1.6 5.8-3.6 12.8-9.3 14.5 3.8 6.4 13.2 7.4 20 4.2 9.9-4.7 15-22.8 23.9-25.6 9.8-3.2 4 12.1 12.5 15.9z" fill="#8f5a6a"/><path d="M318 482.4c-19.1-5.1-38.9-7.7-58.7-7.7m-72.8-61.2s19.1 14 14 21.7" class="c e"/><g opacity=".7"><linearGradient id="D" x1="402.38" x2="402.38" y1="785.45" y2="558.25" gradientUnits="userSpaceOnUse"><stop offset="0" stop-color="gray" stop-opacity=".25"/><stop offset=".54" stop-color="gray" stop-opacity=".12"/><stop offset="1" stop-color="gray" stop-opacity=".1"/></linearGradient><path d="M715.7 558.3H89V613h36.5v172.5h555.1V613h35.1z" fill="url(#D)"/></g><path d="M131.2 590.2h543.7v195.3H131.2z" class="i"/><path d="M131.2 600.4h543.7V631H131.2z" class="c e"/><path d="M95.4 568.5h613.9v52.3H95.4z" class="i"/><path d="m217.9 555.6h104.4c3.6 0 6.5 2.9 6.5 6.5v3.6c0 3.6-2.9 6.5-6.5 6.5h-104.4c-3.6 0-6.5-2.9-6.5-6.5v-3.6c0-3.6 2.9-6.5 6.5-6.5z" fill="#535461"/><g opacity=".7"><linearGradient id="E" x1="428.81" x2="428.81" y1="572.38" y2="370.58" gradientUnits="userSpaceOnUse"><stop offset="0" stop-color="gray" stop-opacity=".25"/><stop offset=".54" stop-color="gray" stop-opacity=".12"/><stop offset="1" stop-color="gray" stop-opacity=".1"/></linearGradient><path d="m311.1 370.6h235.4c15.6 0 28.2 12.6 28.2 28.2v145.4c0 15.6-12.6 28.2-28.2 28.2h-235.4c-15.6 0-28.2-12.6-28.2-28.2v-145.4c0-15.6 12.6-28.2 28.2-28.2z" fill="url(#E)"/></g><path d="M314.9 374.3h222.8c14.8 0 26.8 12 26.8 26.8v144.4c0 14.8-12 26.8-26.8 26.8H314.9c-14.8 0-26.8-12-26.8-26.8V401.2c0-14.9 12-26.9 26.8-26.9z" fill="#3e3f49"/><path d="M318.8 374.3h222.8c14.8 0 26.8 12 26.8 26.8v144.4c0 14.8-12 26.8-26.8 26.8H318.8c-14.8 0-26.8-12-26.8-26.8V401.2c-.1-14.9 11.9-26.9 26.8-26.9z" fill="#535461"/><circle cx="443.1" cy="472" r="8.9" class="i"/><g fill="#fff" class="c"><path d="M105.4 226c1.4 6.1 16.4 21.1 16.4 21.1s7-20.1 5.6-26.2-7.4-9.9-13.5-8.5-9.9 7.5-8.5 13.6zM95 263.8c4.5 4.3 25.3 8.8 25.3 8.8s-5.1-20.7-9.6-25-11.6-4.2-15.9.2c-4.4 4.5-4.3 11.6.2 16z" class="d"/><use xlink:href="#G" class="d"/><use xlink:href="#I" class="d"/><use xlink:href="#J" class="d"/></g><path d="M1027 141.7c0-3.483 3.25-6.308 7.26-6.308h64.578c4.01 0 7.26 2.825 7.26 6.308v73.343c0 3.483-3.252 6.308-7.26 6.308h-64.578c-4.01 0-7.26-2.825-7.26-6.308z" fill="#fedb41"/><path d="M1042 152.8c0-2.465 2.3-4.462 5.137-4.462h39.008c2.838 0 5.14 1.997 5.14 4.462l.04 12.525c0 2.465-2.303 4.462-5.14 4.462h-39c-2.834 0-5.135-1.997-5.135-4.462z" fill="#fc1939"/><g fill="#3c3a41"><path d="M1034.346 131.47c-6.57 0-11.914 4.583-11.914 10.215v73.343c0 5.632 5.344 10.215 11.914 10.215h64.577c6.57 0 11.914-4.583 11.914-10.215v-73.343c0-5.632-5.344-10.215-11.914-10.215zm67.186 10.215v73.343c0 1.325-1.17 2.4-2.608 2.4h-64.577c-1.438 0-2.608-1.076-2.608-2.4v-73.343c0-1.325 1.17-2.4 2.608-2.4h64.577c1.438 0 2.608 1.076 2.608 2.4zm-15.395 2.76h-39c-5.397 0-9.8 3.755-9.8 8.37v.01l.04 12.515c0 4.614 4.392 8.37 9.788 8.37h39c5.4 0 9.792-3.755 9.792-8.38l-.04-12.515c0-4.612-4.392-8.367-9.792-8.367zm.037 21.45h-39c-.228 0-.482-.23-.482-.567l-.04-12.517c0-.326.254-.553.484-.553h39c.23 0 .486.23.486.567l.04 12.515c-.002.326-.258.555-.5.555zm-44.182 20.663h29.55c2.568 0 4.653-1.75 4.653-3.907s-2.085-3.907-4.653-3.907h-29.55c-2.568 0-4.653 1.75-4.653 3.907s2.085 3.907 4.653 3.907z"/><use xlink:href="#L"/><use xlink:href="#M"/><use xlink:href="#M" x="14.832"/><use xlink:href="#L" y="12.884"/><use xlink:href="#N"/><use xlink:href="#M" y="12.874"/><use xlink:href="#M" x="14.832" y="12.874"/><use xlink:href="#L" y="25.758"/><use xlink:href="#N" y="12.874"/></g><defs ><path id="G" d="m108.9 321c6 1.5 26.3-5.1 26.3-5.1s-14.8-15.3-20.9-16.8c-6-1.5-12.2 2.2-13.6 8.2-1.5 6.1 2.2 12.2 8.2 13.7z"/><path id="H" d="m129.2 362c5.7 2.5 26.8-.6 26.8-.6s-12-17.6-17.7-20c-5.7-2.6-12.3-.1-15 5.5-2.6 5.7-.1 12.3 5.5 15 .1 0 .3 0 .4.1z"/><path id="I" d="m143.6 268.5c-3.4 5.2-22.7 14.3-22.7 14.3s.4-21.3 3.7-26.5c3.4-5.2 10.4-6.7 15.6-3.3 5.3 3.3 6.7 10.3 3.4 15.5z"/><path id="J" d="m166.7 316.7c-4.8 4-25.9 6.8-25.9 6.8s6.7-20.2 11.5-24.2 11.9-3.3 15.9 1.5 3.3 11.9-1.5 15.9z"/><path id="K" d="m182.8 366.6c-4 4.7-24.4 11.1-24.4 11.1s3.2-21 7.3-25.8c4.1-4.7 11.2-5.3 15.9-1.2s5.2 11.2 1.2 15.9z"/><path id="L" d="M1091.21 178.742h-4.76c-2.568 0-4.653 1.75-4.653 3.907s2.085 3.907 4.653 3.907h4.76c2.568 0 4.653-1.75 4.653-3.907s-2.085-3.907-4.653-3.907z"/><path id="M" d="M1044.28 191.626h-2.285c-2.568 0-4.653 1.75-4.653 3.907s2.085 3.907 4.653 3.907h2.285c2.568 0 4.653-1.75 4.653-3.907s-2.085-3.907-4.653-3.907z"/><path id="N" d="M1073.83 191.626h-2.287c-2.568 0-4.653 1.75-4.653 3.907s2.085 3.907 4.653 3.907h2.287c2.568 0 4.653-1.75 4.653-3.907s-2.085-3.907-4.653-3.907z"/></defs></svg>