<svg xmlns="http://www.w3.org/2000/svg" xmlns:xlink="http://www.w3.org/1999/xlink" viewBox="0 0 1013.4 610.28"><path d="M689.465 348.4l8.7-1.502 2.494-.475c-28.326-17.587-40.692-52.45-29.78-83.954s42.193-51.25 75.328-47.546l-11.4 27.103 26.986-23.563a1.22 1.22 0 0 1 .184.062 71.34 71.34 0 0 1 43.588 90.991c-.45 1.285-.99 2.512-1.505 3.754 7.618-3.828 14.926-8.284 20.886-13.99 12.066-11.562 18.676-27.517 26.064-47.173 14.636-38.953 28.727-78.47 42.256-118.07-30.825-16.68-44.958-53.29-33.338-86.355.725-2.06 1.565-4.042 2.455-6l.68-1.452c.905-1.867 1.86-3.697 2.908-5.452.17-.288.363-.557.538-.842q1.368-2.22 2.886-4.3l1.142-1.555c1.147-1.5 2.334-2.96 3.587-4.352.418-.466.862-.902 1.292-1.356q1.443-1.523 2.966-2.954l1.614-1.492c.14-.124.272-.26.414-.383.007.01.013.02.02.028 25.93-22.596 64.295-23.458 91.213-2.05l-14.82 35.27L983.5 27.5c19.163 24.415 20.23 58.452 2.637 84.02.025.01.05.015.075.024-.29.428-.622.82-.922 1.24q-.844 1.184-1.728 2.325c-.758.976-1.545 1.92-2.35 2.85-.607.702-1.205 1.4-1.836 2.086-.924.988-1.892 1.924-2.866 2.854-.57.543-1.113 1.113-1.698 1.636q-2.3 2.055-4.76 3.9c-.575.43-1.182.81-1.77 1.223-1.15.8-2.308 1.608-3.503 2.346-.742.458-1.503.877-2.26 1.308-1.096.624-2.2 1.23-3.326 1.794-.8.4-1.604.78-2.417 1.15-1.157.527-2.328 1.016-3.512 1.482l-2.4.912a71.42 71.42 0 0 1-4.033 1.264c-.685.197-1.358.422-2.05.598a71.26 71.26 0 0 1-6.173 1.299c-.39.064-.8.088-1.183.145-1.725.25-3.46.454-5.207.577-.75.053-1.507.06-2.262.1-1.413.055-2.827.083-4.25.053a70.94 70.94 0 0 1-2.49-.107q-2.077-.118-4.158-.362l-2.46-.314c-1.486-.226-2.97-.52-4.455-.843-.097-.02-.195-.034-.293-.056q-8.565 25.06-17.448 50.016a71.29 71.29 0 0 1 103.37 8.521l-24.664 27.276 33.394-13.33c8.11 17.01 9.138 36.543 2.854 54.31a69.98 69.98 0 0 1-9.062 17.532c-16.884 23.878-46.635 35.027-75.053 28.127s-49.743-30.452-53.797-59.414l-1.863 5.048c-6.52 17.34-14.63 38.922-30.918 54.525-11.04 10.576-24.625 17.285-37.657 22.958q-12.73 5.54-25.8 10.244c-9.686 5.873-20.628 9.36-31.926 10.175-13.747 3.82-27.668 7.007-41.718 9.468l-8.76 1.5-23.96 4.337c1.154.342 2.31.67 3.457 1.073 29.295 10.31 48.558 38.385 47.64 69.428l-54.925 16.86 49.7 7.893c-9.24 22.714-29.495 39.093-53.64 43.378s-48.798-4.125-65.3-22.272q.757 2.535 1.52 5.063l2.97 9.976c13.078 44.938 7.45 80.288-15.85 99.532l-12.644-15.305c22.678-18.734 15.642-57.336 9.434-78.682l-2.92-9.798c-8.518-28.298-18.174-60.373-5.668-89.848 18.848-44.424 73.17-53.726 116.82-61.2z" fill="#f2f2f2"/><path d="M673.375 609h-384.83c-26.28 0-47.583-21.304-47.583-47.583v-176.3a18.85 18.85 0 0 1 5.882-13.681l203.92-193.3c16.93-16.05 43.458-16.05 60.388 0l194.43 184.3c9.816 9.305 15.376 22.235 15.376 35.76v163.23c0 12.62-5.013 24.723-13.937 33.646s-21.026 13.937-33.646 13.937z" fill="#ffe0e0"/><path d="M240.95 388h476v192.27a28.732 28.732 0 0 1-28.732 28.732h-418.54a28.732 28.732 0 0 1-28.732-28.732V388z" opacity=".1"/><rect x="303.45" y="236.49" width="354" height="354" rx="26.181" fill="#072f70"/><path opacity=".1" d="M657.45 395.94V590.5h-354V395.94l177 85.55z"/><path d="M480.455 492.5l-226.8-109.62a9.2 9.2 0 0 0-13.206 8.285v188.6c0 15.868 12.864 28.732 28.732 28.732h422.54a28.73 28.73 0 0 0 28.732-28.732v-185.37a11.23 11.23 0 0 0-16.115-10.11z" fill="#ffe0e0"/><path d="M333.95 269h99v14h-99zm-8 51h294v8h-294zm0 27h294v8h-294zm0 27h294v8h-294z" fill="#f2f2f2"/><path fill="none" stroke="#3f3d56" stroke-miterlimit="10" d="M60.954 608.5H884.95"/><path d="M0 485.35c0 58.96 36.99 106.67 82.7 106.67" fill="#46455b"/><g fill="#0c9"><path d="M82.695 592.02c0-59.623 41.277-107.87 92.288-107.87"/><path d="M29.965 490.7c0 56.006 23.587 101.33 52.736 101.33"/></g><path d="M82.695 592.02c0-76.185 47.7-137.83 106.67-137.83" fill="#46455b"/><path d="M65.305 592.77s11.728-.36 15.263-2.878 18.04-5.522 18.918-1.486 17.625 20.076 4.384 20.183-30.766-2.062-34.294-4.21-4.27-11.608-4.27-11.608z" fill="#a8a8a8"/><path d="M104.105 607.2c-13.24.107-30.766-2.062-34.294-4.21-2.687-1.637-3.757-7.51-4.115-10.218l-.392.015s.743 9.46 4.27 11.608 21.053 4.318 34.294 4.21c3.822-.03 5.142-1.39 5.07-3.405-.53 1.217-1.99 1.977-4.834 2z" opacity=".2"/><use xlink:href="#B" fill="#a0616a"/><use xlink:href="#B" opacity=".1"/><path d="M792.905 403.78q-2.445 26.808-4.9 53.608c-1.276 14.06-2.577 28.18-5.08 42.06a206.34 206.34 0 0 1-3.079 14.258c-3.342 13.097-8.19 25.9-9.755 39.325-.05.387-.09.782-.132 1.177a34.19 34.19 0 0 1-1.671 8.726c-.782 2.05-1.984 3.92-2.832 5.944-1.688 4.05-1.9 8.53-2.116 12.916a55.68 55.68 0 0 0-19.173-6.553c-3.252-.486-6.874-.83-9.088-3.26-2.453-2.684-2.182-6.792-1.77-10.397q1.94-16.794 3.87-33.57c.42-4.812 1.238-9.58 2.445-14.258.445-1.556.98-3.087 1.523-4.618.75-2.107 1.506-4.215 2.074-6.38a76.83 76.83 0 0 0 1.712-10.628l4.396-34.345c2.1-17.057 3.696-34.197 3.235-51.377-.066-2.544-.173-5.087-.338-7.64-.23-3.696-.568-5.655 2.494-7.97 3.383-2.552 7.837-4.338 11.706-6 2.083-.906 25.018-9.047 25.553-7.26a44.69 44.69 0 0 1 1.679 11.706 130.25 130.25 0 0 1-.766 14.546z" fill="#f21f16"/><path d="M782.935 499.45a206.34 206.34 0 0 1-3.079 14.258c-3.342 13.097-8.19 25.9-9.755 39.325-.05.387-.09.782-.132 1.177-10.224-14.604-18.835-30.31-28.813-45.072.75-2.107 1.507-4.215 2.075-6.38a76.83 76.83 0 0 0 1.712-10.628l4.396-34.345c.586 2.39 1.422 4.7 2.494 6.923 6.7 13.616 22.622 20.498 30.4 33.53q.358.605.692 1.2z" opacity=".1"/><path d="M699.965 379.72c.338 10.92 2.086 21.743 3.83 32.53l3.6 22.254c1.97 12.18 4.02 24.607 9.785 35.516 4.312 8.16 10.524 15.124 16.143 22.445 13.815 17.998 24.194 38.387 37.294 56.913 3.808 5.385 9.25 11.208 15.75 10.084 4.265-.738 7.363-4.29 10.715-7.027 3.952-3.228 8.716-5.6 11.826-9.636s3.72-10.77-.494-13.65a22.23 22.23 0 0 0-4.822-1.973c-6.53-2.484-10.76-8.862-13.45-15.312s-4.32-13.384-7.904-19.383c-7.787-13.032-23.7-19.913-30.413-33.534-3.754-7.63-4.112-16.422-4.4-24.92l-.73-21.662c-.08-2.37-.143-4.833.82-6.998 2.564-5.766 10.305-6.303 16.573-7.034a56.69 56.69 0 0 0 20.31-6.408c3.6-1.95 7.137-4.435 9.07-8.055 1.762-3.303 2.005-7.176 2.212-10.914l2.17-39.258c.187-3.377.357-6.87-.833-10.036-2.99-7.95-13.03-10.548-21.514-10.17-15.8.706-30.367 7.498-45.255 12.085a115.05 115.05 0 0 1-11.217 2.926c-3.34.67-7.385.392-10.572 1.467-5.667 1.91-5.523 14.304-6.327 19.445a163.69 163.69 0 0 0-2.165 30.305z" fill="#f21f16"/><path d="M784.225 561.1c1.392 1.404 1.847 3.46 2.2 5.405a184.6 184.6 0 0 1 3.126 32.692 5.34 5.34 0 0 0 .588 2.962 3.72 3.72 0 0 0 1.538 1.236c4.024 1.918 8.695-.755 12.048-3.692 6.216-5.445 11.476-12.754 11.83-21a48.78 48.78 0 0 1 .223-6.372c.546-3.108 2.36-5.817 3.96-8.537a72.02 72.02 0 0 0 6.545-14.672c.6-1.923 1.018-4.345-.5-5.687a5.48 5.48 0 0 0-1.792-.931l-18.18-6.75c-1.575-.585-5.495 9.484-6.117 10.585-1.522 2.693-3.035 4.22-6.088 4.843-3.117.634-6.827-.276-9.735 1.28-4.92 2.63-2.455 5.84.33 8.65zm-28.05 6.22a5.57 5.57 0 0 0-1.384-1.754 6.26 6.26 0 0 0-2.791-.948c-3.46-.588-7.563-.975-9.95 1.598-2.24 2.412-1.854 6.34-3.727 9.047-.593.857-1.396 1.563-1.9 2.47a9.31 9.31 0 0 0-.838 4.429c-.097 4.195-.193 8.398.097 12.584.243 3.508.834 7.184 3.028 9.932 3.52 4.4 9.87 5.045 15.508 5.332l4.565.232a8.91 8.91 0 0 0 3.741-.343 6.16 6.16 0 0 0 3.227-3.551c2.376-5.906-1.387-12.27-3.705-18.2-2.664-6.816-2.186-14.383-5.86-20.827z" fill="#535070"/><path d="M718.395 132.6c-.056-.6.032-1.202.257-1.76.67-1.182 2.415-.86 3.732-.528 5.297 1.335 10.878.127 16.33.44s11.597 3.038 12.693 8.4c3.96-2.806 7.37-6.312 10.07-10.345 1.514-2.265 2.833-4.86 2.627-7.576-.297-3.918-3.584-6.848-6.628-9.333l-9.073-7.407c-1.19-1.094-2.566-1.97-4.062-2.583-2.095-.716-4.38-.375-6.594-.373-6.605.004-13.647-3.002-19.52.018-2.454 1.26-4.3 3.423-6.08 5.53l-8.098 9.586a5.12 5.12 0 0 0-1.294 2.195c-.23 1.17.37 2.325.58 3.5.383 2.14-.54 4.427.17 6.484 1.177 3.414 5.323 3.897 7.857 5.855.945.73 2.425 3.202 3.55 3.172 2.03-.054 3.434-3.683 3.487-5.26z" fill="#3f3d56"/><circle cx="732.13" cy="134.92" r="25.932" fill="#a0616a"/><path d="M738.205 191.68c-1.806-5.17-6.754-8.577-12.23-8.416a3.73 3.73 0 0 1-2.256-.285 3.11 3.11 0 0 1-.927-1.159 45.3 45.3 0 0 1-3.781-8.938c-.414-1.373-.98-2.99-2.368-3.348a3.2 3.2 0 0 0-3.018 1.313 26.59 26.59 0 0 1-2.157 2.711c-3.26 2.916-9.043.258-12.504 2.934-.565.437-1.032.997-1.626 1.394-.594.358-1.235.632-1.904.816a182.62 182.62 0 0 0-19.626 7.687c2.303 13.867 4.662 27.975 10.06 40.955 2.568 6.177 5.48 12.226 7.536 18.59 4.557 14.104 4.76 29.194 4.8 44.015.035 10.144-.015 20.505-3.297 30.103a28.41 28.41 0 0 0-1.853 6.613c-.198 2.287.468 4.81 2.32 6.164a7.94 7.94 0 0 0 3.581 1.258c5.687.834 11.42-.68 17.02-1.976 15.008-3.476 30.315-5.465 45.592-7.448l25.6-3.324a14.86 14.86 0 0 0 5.296-1.369c4.685-2.565 5.13-9.61 2.22-14.1-1.395-2.147-3.362-3.91-4.534-6.185s-1.272-5.46.746-7.037c4.104-3.207 2.88-9.158 3.075-14.362q.82-21.83-.222-43.674a86.96 86.96 0 0 1-.145-9.058c.455-5.117 1.4-10.18 2.823-15.115l7.78-30.628c-2.032-3.21-5.923-5.248-9.61-6.173s-7.525-1.197-11.154-2.322c-7.436-2.304-14.057-8.152-21.823-7.607a3.96 3.96 0 0 0-1.691.413c-1.75.992-1.474 3.516-1.586 5.526-.248 4.447-3.518 8.163-7.13 10.77s-7.737 4.506-11.054 7.478c-1.19.897-1.912 2.284-1.962 3.774z" fill="#1dbf9a"/><g fill="#a0616a"><path d="M635.455 220.73c-1.72 1.116-3.547 2.056-5.455 2.807a17.93 17.93 0 0 0-5.225 2.536 8.19 8.19 0 0 0-1.817 2.245 9.98 9.98 0 0 0 .207 10.158c1.917 3.095 5.364 4.902 9 4.716a20.04 20.04 0 0 0 6.807-2.03l18.3-7.926c3.096-1.34 6.44-2.913 7.903-5.954.17-.284.234-.62.178-.945a1.56 1.56 0 0 0-.751-.79c-4.125-2.68-7.733-6.08-10.65-10.042-.75-1.02-1.67-3.424-2.73-4.035-3.87-2.23-12.658 7.25-15.757 9.26zm195.53-6.5l6.743 7.703 4.216 5.067a59.14 59.14 0 0 1 7.723 14.549c1.466 3.846 2.682 7.943 2.17 12.027a29.42 29.42 0 0 1-1.687 6.117 76.14 76.14 0 0 1-4.582 11.036 62.94 62.94 0 0 1-5.156 7.727 180.44 180.44 0 0 1-17.094 19.552c-2.305 2.282-3.272 5.972-4.276 9.057-1.85 5.7-6.255 10.12-10.514 14.323-1.37 1.445-2.88 2.747-4.515 3.885-2.447 1.576-5.306 2.4-8.216 2.34a9.02 9.02 0 0 1-3.701-.766c-2.915-1.384-4.396-4.754-4.7-7.967-.27-2.915.217-5.85 1.418-8.52 3.87-8.572 13.806-12.286 20.83-18.54 4.12-3.667 7.268-8.274 10.374-12.83a44.35 44.35 0 0 0 5.247-9.197c1.57-4.185.958-9.14 2.328-13.394.58-1.798 1.6-3.422 2.232-5.206s.78-3.9-.3-5.445c-.822-.98-1.87-1.748-3.053-2.235-4.487-2.277-9.512-5.208-10.37-10.166a10.89 10.89 0 0 1 2.009-7.764 32.35 32.35 0 0 1 5.658-5.93c1.962-1.735 5.262-3.687 7.225-5.422z"/><path d="M631.125 231.48c-1.19-2.405-2.68-4.86-5.082-6.055-2.354-1.022-5.024-1.033-7.387-.03-2.33 1.004-4.51 2.323-6.483 3.92l-5.812 4.285c-1.318.864-2.484 1.94-3.45 3.185-.917 1.5-1.528 3.185-1.797 4.93-1.013 3.98-1.322 8.11-.914 12.197.922 6.554 4.874 12.276 9.224 17.266 2.718 3.118 6.073 6.264 10.207 6.397 1.784.057 3.77-.646 4.51-2.27a5.66 5.66 0 0 0 .403-2.022c.447-7.31-2.17-14.452-5.218-21.11-.972-1.744-1.547-3.68-1.683-5.673-.022-.335.065-.668.248-.95.263-.274.615-.445.992-.484 4.174-.826 11.364 2.417 14.292-2.218 1.898-3.005-.702-8.64-2.05-11.365z"/></g><path d="M717.035 124.44c-.056-.6.032-1.202.257-1.76.67-1.182 2.415-.86 3.732-.528 5.297 1.335 10.878.127 16.33.44s11.597 3.038 12.693 8.4c3.96-2.806 7.37-6.312 10.07-10.345 1.514-2.265 2.833-4.86 2.627-7.576-.297-3.918-3.584-6.848-6.628-9.333l-9.073-7.407a13.67 13.67 0 0 0-4.062-2.583c-2.095-.716-4.38-.375-6.594-.373-6.605.004-13.647-3.002-19.52.018-2.454 1.26-4.3 3.423-6.08 5.53l-8.098 9.586a5.12 5.12 0 0 0-1.294 2.195c-.23 1.17.37 2.325.58 3.5.383 2.14-.54 4.427.17 6.483 1.177 3.414 5.323 3.897 7.857 5.855.945.73 2.425 3.202 3.55 3.17 2.03-.054 3.434-3.683 3.487-5.26zm-55.08 71.06a10.54 10.54 0 0 0-2.714 2.527c-.95 1.438-1.144 3.252-1.96 4.77-1.748 3.248-5.835 4.403-8.385 7.067a2.64 2.64 0 0 0-.806 1.382 3.08 3.08 0 0 0 .685 1.99l12.297 19.332c4.094.36 8.022-2.205 12.118-1.864 1.53.127 3.094.655 4.56.203a13.08 13.08 0 0 0 2.927-1.79c2.444-1.545 5.698-1.725 7.748-3.764 1.967-1.956 2.22-5.017 2.195-7.792a31.32 31.32 0 0 0-.731-7.168c-1.8-7.42-7.485-13.114-11.043-19.687-1.732-3.2-2.674-5.073-6.34-2.876-3.685 2.2-7.082 5.134-10.55 7.67zm149.34-9.77a28.77 28.77 0 0 1 6.186 5.419c1.873 2.415 2.934 5.372 4.734 7.842 1.744 2.395 4.12 4.25 6.097 6.456 3 3.345 5.033 7.425 7.03 11.45a171.06 171.06 0 0 1-15.906 17.977 5.13 5.13 0 0 1-2.415 1.588c-1.3.138-2.582-.385-3.414-1.392-.886-.93-1.513-2.075-2.36-3.04a12.16 12.16 0 0 0-7.518-3.636 51.63 51.63 0 0 0-8.518-.117 3.37 3.37 0 0 1-1.819-.306 3.14 3.14 0 0 1-.993-1.14c-3.33-5.665-2.258-12.778-1.084-19.243L794 192.753a33.26 33.26 0 0 1 2.243-8.245c1.02-2.182 3.304-5.88 6.1-5.228 2.83.658 6.552 4.736 8.933 6.45z" fill="#3f3d56"/><ellipse cx="317.95" cy="242.07" rx="41" ry="41.075" fill="#fff"/><path d="M317.955 194c-27.062 0-49 21.938-49 49s21.938 49 49 49 49-21.938 49-49c-.08-27.03-21.97-48.92-49-49zm-10.06 75.125l-25.112-25.113 7.044-7.044 18.092 18.092 38.187-38.187 7.044 7.044-45.254 45.207z" fill="#da9e00"/><defs ><path id="B" d="M719.715 162.77c-.6 5.355-4.685 9.668-6.198 14.84-2.278 7.784 1.66 16.136 7.048 22.198a49.16 49.16 0 0 0 34.234 16.255 14.6 14.6 0 0 0 5.66-.617c1.632-.657 3.102-1.66 4.306-2.943 4.057-4.074 6.235-9.72 7.103-15.402s.53-11.474.19-17.214a9.72 9.72 0 0 0-.636-3.472c-.553-1.056-1.313-2-2.235-2.747a52.07 52.07 0 0 0-9.59-6.966 11.01 11.01 0 0 1-4.018-3.075c-.652-1.133-1.074-2.384-1.242-3.68l-1.06-5.4a10.61 10.61 0 0 0-1.556-4.376c-1.872-2.525-5.452-2.868-8.592-2.99l-11.505-.45c-3.58-.14-8.294-1.167-11.788-.464-3.262.656-2.18 3.663-1.586 6.4.86 3.305 1.35 6.695 1.463 10.108z"/></defs></svg>