<svg xmlns="http://www.w3.org/2000/svg" xmlns:xlink="http://www.w3.org/1999/xlink" viewBox="0 0 1062 794.36"><style><![CDATA[.B{opacity:.1}.C{fill:#072f70}.D{opacity:.25}.E{fill:#db9e00}.F{fill:#bf855d}.G{stroke-miterlimit:10}]]></style><defs><linearGradient id="A" x1="643.38" x2="643.38" y1="527.87" y2="439.13" gradientUnits="userSpaceOnUse"><stop stop-color="gray" stop-opacity=".25" offset="0"/><stop stop-color="gray" stop-opacity=".12" offset=".54"/><stop stop-color="gray" stop-opacity=".1" offset="1"/></linearGradient><linearGradient id="B" x1="601.44" x2="601.44" y1="846.53" y2="825.32" xlink:href="#A"/><linearGradient id="C" x1="567.25" x2="567.25" y1="842.29" y2="821.08" xlink:href="#A"/><linearGradient id="D" x1="561.22" x2="561.22" y1="836.11" y2="827.95" xlink:href="#A"/><linearGradient id="E" x1="597.88" x2="597.88" y1="835.38" y2="826.89" xlink:href="#A"/><linearGradient id="F" x1="584.67" x2="584.67" y1="835.03" y2="620.5" xlink:href="#A"/><linearGradient id="G" x1="599.49" x2="599.49" y1="728.89" y2="728.32" xlink:href="#A"/><linearGradient id="H" x1="600.1" x2="600.1" y1="734.92" y2="733.61" xlink:href="#A"/><linearGradient id="I" x1="562.27" x2="562.27" y1="733.65" y2="731.44" xlink:href="#A"/><linearGradient id="J" x1="542.46" x2="542.46" y1="629.42" y2="579.01" xlink:href="#A"/><linearGradient id="K" x1="522.24" x2="522.24" y1="440.19" y2="398.37" xlink:href="#A"/><linearGradient id="L" x1="587.13" x2="587.13" y1="513.38" y2="481.17" xlink:href="#A"/><linearGradient id="M" x1="584.99" x2="584.99" y1="635.45" y2="620.5" xlink:href="#A"/><linearGradient id="N" x1="582.84" x2="582.84" y1="633.82" y2="496.72" xlink:href="#A"/><linearGradient id="O" x1="540.32" x2="540.32" y1="582.71" y2="532.75" xlink:href="#A"/><linearGradient id="P" x1="540.3" x2="540.3" y1="582.71" y2="572.18" xlink:href="#A"/><linearGradient id="Q" x1="581.11" x2="581.11" y1="582.41" y2="570.86" xlink:href="#A"/><linearGradient id="R" x1="609.77" x2="609.77" y1="606.98" y2="588.96" xlink:href="#A"/><linearGradient id="S" x1="567.9" x2="567.9" y1="608.02" y2="605.46" xlink:href="#A"/><linearGradient id="T" x1="604.87" x2="604.87" y1="541.68" y2="524.88" xlink:href="#A"/><linearGradient id="U" x1="544.43" x2="544.43" y1="525.13" y2="513.92" xlink:href="#A"/><linearGradient id="V" x1="538.8" x2="538.8" y1="564.15" y2="557.55" xlink:href="#A"/><linearGradient id="W" x1="539.06" x2="539.06" y1="552.57" y2="547.23" xlink:href="#A"/><linearGradient id="X" x1="603.19" x2="603.19" y1="655.98" y2="652.51" xlink:href="#A"/><linearGradient id="Y" x1="565.55" x2="565.55" y1="657.11" y2="654.23" xlink:href="#A"/><linearGradient id="Z" x1="599.22" x2="599.22" y1="663.17" y2="662.83" xlink:href="#A"/><linearGradient id="a" x1="558.65" x2="558.65" y1="671.73" y2="667.08" xlink:href="#A"/><linearGradient id="b" x1="582.1" x2="582.1" y1="584.56" y2="434.29" xlink:href="#A"/><linearGradient id="c" x1="542.98" x2="542.98" y1="501.81" y2="477.61" xlink:href="#A"/><linearGradient id="d" x1="547.17" x2="547.17" y1="562.43" y2="534.56" xlink:href="#A"/><linearGradient id="e" x1="581.02" x2="581.02" y1="584.83" y2="554.96" xlink:href="#A"/><linearGradient id="f" x1="618.43" x2="618.43" y1="484.19" y2="462.35" xlink:href="#A"/><linearGradient id="g" x1="612.82" x2="612.82" y1="534.25" y2="509.77" xlink:href="#A"/><linearGradient id="h" x1="638.86" x2="638.86" y1="531.3" y2="507.86" xlink:href="#A"/><linearGradient id="i" x1="647.52" x2="647.52" y1="531.06" y2="508.4" xlink:href="#A"/><path id="j" d="M838.38 503c-4.3 4.17-24.33 8.5-24.33 8.5s4.92-19.9 9.22-24.07c4.302-4.173 11.172-4.067 15.345.235s4.067 11.172-.235 15.345z"/><path id="k" d="M827.05 539c-5.88 1.17-25-6.1-25-6.1s14.93-14 20.8-15.2c5.808-1.015 11.364 2.794 12.51 8.577s-2.535 11.425-8.29 12.703z"/><path id="l" d="M785.8 577.94c-5.66-2-18.53-17.9-18.53-17.9s20-4.57 25.63-2.6c5.664 1.96 8.666 8.14 6.705 13.805s-8.14 8.666-13.805 6.705z"/><path id="m" d="M748 600.37c-5.92-1-21.3-14.5-21.3-14.5s18.92-7.87 24.83-6.9a10.85 10.85 0 0 1 6.702 17.629A10.85 10.85 0 0 1 748 600.37z"/><path id="n" d="M785.32 517.36c0 6 10.84 23.37 10.84 23.37S807 523.36 807 517.37s-4.858-10.85-10.85-10.85-10.85 4.858-10.85 10.85z"/><path id="o" d="M741.4 544.18c1.8 5.72 17.34 19.06 17.34 19.06s5.16-19.82 3.37-25.54a10.85 10.85 0 0 0-18.338-4.108 10.85 10.85 0 0 0-2.372 10.588z"/><path id="p" d="M702.27 576.07c.8 5.94 13.86 21.7 13.86 21.7s8.44-18.66 7.65-24.6c-.798-5.94-6.26-10.108-12.2-9.3s-10.108 6.26-9.3 12.2z"/></defs><path d="M605.87 111.4c-64.72-2.24-126.36-23.14-185.22-46S303.5 17.18 240.32 5.1C199.7-2.7 153.22-3.8 120.5 18 89 38.96 78.8 75.18 73.33 108.72c-4.12 25.26-6.54 51.85 4.74 75.5 7.84 16.42 21.74 30.22 31.36 45.94 33.47 54.73 9.8 122.2-26.45 175.64-17 25.06-36.75 49-49.88 75.65s-19.2 57.25-7.7 84.47c11.38 27 38.5 47.24 67.9 61.5 59.7 28.95 130 37.23 198.6 41.93 151.83 10.38 304.46 5.9 456.7 1.38 56.34-1.66 112.92-3.35 168.34-12.06 30.78-4.84 62.55-12.52 84.9-31.06 28.36-23.53 35.4-63.37 16.38-92.88-31.88-49.5-120-61.78-142.3-114.9-12.26-29.24.33-61.8 18.16-88.9 38.24-58.17 102.33-109.2 105.7-175.68 2.32-45.66-28.5-91.4-76.13-113-49.93-22.65-119.18-19.8-156 17.68C729.68 98.53 663 113.4 605.87 111.4z" fill="#d8ffb3" opacity=".795" fill-opacity=".922"/><path d="M0 123.48h259.5V383H0zm802.5 0H1062V383H802.5z" fill="#e8e9ed"/><path d="M145.4 32.03l-2.6-2.65a.54.54 0 0 0-.41-.18.52.52 0 0 0-.41.18l-17.9 18-6.52-6.5a.56.56 0 0 0-.82 0l-2.6 2.6a.58.58 0 0 0 0 .84l8.22 8.2a2.57 2.57 0 0 0 1.71.84 2.72 2.72 0 0 0 1.71-.81l19.63-19.7a.63.63 0 0 0 0-.84z" class="E"/><path d="M129.75 14.88c12.588.01 23.417 8.908 25.867 21.255s-4.163 24.706-15.795 29.52-25.043.74-32.035-9.727S102.17 31.51 111.07 22.6a26.25 26.25 0 0 1 18.68-7.73m0-4.1a30.53 30.53 0 0 0-21.584 52.122A30.53 30.53 0 0 0 160.28 41.29a30.51 30.51 0 0 0-30.53-30.52z" class="C"/><path d="M345.82 117.36l-3.26-3.34a.68.68 0 0 0-.51-.22.66.66 0 0 0-.52.22L319 136.72l-8.2-8.2a.7.7 0 0 0-.51-.22.72.72 0 0 0-.52.22l-3.3 3.3a.72.72 0 0 0 0 1.05l10.34 10.32a3.24 3.24 0 0 0 2.16 1.05 3.43 3.43 0 0 0 2.14-1l24.7-24.84a.79.79 0 0 0 0-1z" class="E"/><path d="M326.12 95.76c15.862.004 29.513 11.2 32.605 26.768a33.25 33.25 0 0 1-60.268 24.954c-8.812-13.188-7.08-30.766 4.134-41.982a33 33 0 0 1 23.52-9.74m0-5.17c-21.224 0-38.43 17.206-38.43 38.43s17.206 38.43 38.43 38.43 38.43-17.206 38.43-38.43a38.42 38.42 0 0 0-38.43-38.43zm606.09-75.7c12.588.01 23.417 8.908 25.867 21.255s-4.163 24.706-15.795 29.52-25.043.74-32.035-9.727A26.41 26.41 0 0 1 913.52 22.6a26.25 26.25 0 0 1 18.68-7.73m0-4.1a30.53 30.53 0 1 0 30.53 30.52 30.51 30.51 0 0 0-30.53-30.52zm-197.73 85c15.867-.02 29.537 11.173 32.647 26.73s-5.205 31.147-19.86 37.23A33.25 33.25 0 0 1 711 105.5a33.06 33.06 0 0 1 23.52-9.74m0-5.17c-21.224 0-38.43 17.206-38.43 38.43s17.206 38.43 38.43 38.43 38.43-17.206 38.43-38.43a38.42 38.42 0 0 0-38.48-38.43zm-205.2 66.15c20.96.014 38.992 14.83 43.07 35.4s-6.93 41.137-26.298 49.152-41.7 1.234-53.34-16.195-9.353-40.655 5.468-55.476a43.67 43.67 0 0 1 31.1-12.87m0-6.84a50.81 50.81 0 1 0 50.81 50.81 50.8 50.8 0 0 0-50.81-50.81z" class="C"/><path d="M181.52 191.5h289.2v289.2h-289.2zm408.35 0h289.2v289.2h-289.2z" fill="#f3f5f7"/><path d="M25.93 169.55h96.46v10.72H25.93zm823.27 0h96.46v10.72H849.2z" class="B"/><path d="M701.2 618.4s25.06-44.4 62.8-57.18a77.23 77.23 0 0 0 39.12-29.26 130.64 130.64 0 0 0 11.54-20.79" fill="none" stroke="#535461" stroke-width="2" class="G"/><g class="F"><use xlink:href="#j"/><use xlink:href="#k"/><use xlink:href="#l"/><use xlink:href="#m"/><use xlink:href="#n"/><use xlink:href="#o"/><use xlink:href="#p"/></g><use xlink:href="#j" class="D"/><use xlink:href="#k" class="D"/><use xlink:href="#l" class="D"/><use xlink:href="#m" class="D"/><use xlink:href="#n" class="D"/><use xlink:href="#o" class="D"/><use xlink:href="#p" class="D"/><path d="M702.63 617.53s4.93-50.73 34.24-77.72a77.32 77.32 0 0 0 23.91-42.63 130.28 130.28 0 0 0 2.13-23.66" fill="none" stroke="#535461" stroke-width="2" class="G"/><path d="M781.3 456.43c-2.24 5.56-18.8 17.62-18.8 17.62s-3.57-20.17-1.33-25.73a10.84 10.84 0 0 1 14.12-6c5.56 2.25 8.25 8.56 6 14.12zm4.2 37.5c-4.9 3.45-25.35 4.58-25.35 4.58s8-18.88 12.87-22.32a10.85 10.85 0 0 1 12.48 17.74zm-21.92 52.32c-6 .5-24.2-8.85-24.2-8.85s16.4-12.27 22.37-12.77a10.85 10.85 0 1 1 1.82 21.62zm-25.5 35.86c-5.8 1.5-25.35-4.64-25.35-4.64s14.1-14.86 19.9-16.37c5.747-1.37 11.533 2.1 13.018 7.83s-1.88 11.573-7.568 13.17zm.52-91.04c2.43 5.48 19.38 17 19.38 17s2.9-20.28.47-25.76a10.86 10.86 0 0 0-14.32-5.53 10.86 10.86 0 0 0-5.53 14.32zm-29.3 42.3c4 4.5 23.58 10.4 23.58 10.4s-3.32-20.22-7.27-24.72-10.8-4.95-15.315-.995-4.95 10.8-.995 15.315zm-22.84 45.02c3.13 5.1 21.47 14.24 21.47 14.24s.16-20.5-3-25.6c-3.137-5.106-9.82-6.702-14.925-3.565s-6.702 9.82-3.565 14.925z" class="F"/><path d="M218.85 253.23h96.46v10.72h-96.46zm177.75 94.23h57.6v10.72h-57.6zm0 71.94h85.28v10.72H396.6zM218.85 291h96.46v10.72h-96.46zm434.07-37.77h96.46v10.72h-96.46zm0 37.77h96.46v10.72h-96.46z" class="B"/><path d="M515.66 215.65l2.7-3.54a14 14 0 0 0 9.72 4c4.56 0 7.94-2.23 7.94-5.84 0-3.92-3.24-6.5-12.22-6.5v-4.07c8 0 11-2.63 11-6.1 0-3.14-2.7-5.1-6.68-5.1a12.86 12.86 0 0 0-8.36 3.42l-2.87-3.42a17.49 17.49 0 0 1 11.45-4.45c6.9 0 12 3.32 12 9.14 0 4.1-3 6.78-7.32 8.26v.22c4.63 1 8.5 4.07 8.5 8.86 0 6.32-6 10.1-13.08 10.1-6.02-.01-10.15-2.3-12.8-5zm222-92.15l.27-6.3h-.25l-3.47 5.08-8 10.26h21.24v4.13h-26.72v-3.5l15.95-21h5.87v33.4h-4.9zm184.2-71.62l1.8-2.47a9.41 9.41 0 0 0 6.55 2.69c3.22 0 5.75-1.92 5.75-5.07s-2.23-4.85-5.54-4.85a8.47 8.47 0 0 0-4.72 1.39l-1.88-1.2.76-11.8h14v3.25h-10.7l-.6 6.47a9.84 9.84 0 0 1 4.15-.88c4.6 0 8.33 2.36 8.33 7.58s-4.38 8.27-9.1 8.27a12.29 12.29 0 0 1-8.81-3.36z" class="E"/><path d="M347.16 283.32h357.5v357.5h-357.5z" class="B F"/><path fill="#fff" d="M359.16 266.32h357.5v357.5h-357.5z"/><g class="C"><path d="M396.6 305.92h282.6v10.72H396.6z"/><path d="M396.6 383.43h179.95v10.72H396.6z" class="B"/></g><path d="M396.6 455.38h174.6v10.72H396.6zm0 35.97h238v10.72h-238z" class="B"/><path d="M627.52 384.38l-1.23-1.27a.3.3 0 0 0-.2-.08.27.27 0 0 0-.19.08l-8.53 8.6-3.1-3.1a.32.32 0 0 0-.2-.08.29.29 0 0 0-.19.08l-1.25 1.25a.28.28 0 0 0 0 .4l3.92 3.9a1.25 1.25 0 0 0 .82.4 1.26 1.26 0 0 0 .81-.39l9.35-9.4a.32.32 0 0 0 0-.4z" class="E"/><path d="M620.07 376.18a12.6 12.6 0 0 1 4.835 24.239 12.6 12.6 0 0 1-13.735-20.549 12.5 12.5 0 0 1 8.9-3.69m0-1.95a14.55 14.55 0 0 0-10.298 24.838 14.55 14.55 0 0 0 24.838-10.298c-.01-8.022-6.518-14.52-14.54-14.52z" class="C"/><path d="M627.52 456.32l-1.23-1.26a.26.26 0 0 0-.2-.08.24.24 0 0 0-.19.08l-8.53 8.6-3.1-3.1a.28.28 0 0 0-.2-.09.26.26 0 0 0-.19.09l-1.25 1.24a.28.28 0 0 0 0 .4l3.92 3.92a1.25 1.25 0 0 0 .82.4 1.31 1.31 0 0 0 .81-.39l9.35-9.4a.32.32 0 0 0 0-.4z" class="E"/><path d="M620.07 448.18a12.6 12.6 0 0 1 4.835 24.239 12.6 12.6 0 0 1-13.735-20.549 12.5 12.5 0 0 1 8.9-3.69m0-2a14.55 14.55 0 0 0-10.302 24.835 14.55 14.55 0 0 0 24.842-10.285 14.54 14.54 0 0 0-14.54-14.55z" class="C"/><ellipse cx="512.51" cy="782.38" rx="71.41" ry="11.98" class="B F"/><path d="M590.84 461.8c-.67-1.37-6-19-6-19l-10.27-26.07s-6.23-34.3-15.53-25.75 5 29.1 5 29.1 5.87 15 5.57 18 3.27 14 3.27 14l-1.16 6.32c-1.5-.1-2.5-.1-2.5-.1s-.92 1.32-1.8 1.4a.83.83 0 0 1-.44-.06c-1-.45-4.3-.36-6-.36a13.44 13.44 0 0 1-4.49-1.44c-.58-1.16-3.86-1.85-6.77-2.24-2.2-5.5-5.32-10.85-5.75-16.6a7.17 7.17 0 0 1 .88-4.52 5.65 5.65 0 0 1 .66-.82c.8-.82 1.8-1.54 2.7-2.3a17.58 17.58 0 0 0 1.25-1.17c7.63-7.4 6.42-18.86-.5-26.8-8-9.17-44.08-28.9-55-12-1.52 2.36-1.57 5.1-2 7.7a32.14 32.14 0 0 1-8.62 17c-3.62 3.85-8.37 7.4-10.45 11.76l-.07-.16a11.65 11.65 0 0 0-1.08 3c-1.05 5.3 2.53 10.42 4.4 15.6a28 28 0 0 1 1.38 5.42l.12-1.14a35.22 35.22 0 0 1 .47 8c-13.1 2.68-13.1 25.26-13.1 25.26s-1.6 9-1.34 12.2.27 10.23.27 11.94-1.62 12.2-1.8 13.47c-.23 1.4-2.7 8.05 3.25 9.55.4.1.85.2 1.3.28.25 5.4.72 16.7.3 19.2 0 0 2.16 15.18 3.95 19a45.06 45.06 0 0 0 4 6.45 7 7 0 0 1-.91 2.61c-.9 1.33-.44 2.42 1.1 2.9q-.07.7-.18 1.56c-.65 5.86-1.63 17.5 0 23.4 2.3 8.08 2.42 10.77 2.42 10.77a8 8 0 0 0 .94 3.77c1 1.35 2.7 13.87 2.7 15.9s4.58 20.2 3.23 24.5-.27 10.37-.27 10.37-.8 10.64-1.75 12.93-1.35 39.2.13 48.75 2.43 17.5 2.43 17.5-1 8.75-.14 10 2.3 8.5 1.2 8.9-1.6 3.37-1.6 3.37a29.63 29.63 0 0 0 1.84 2.51 10.16 10.16 0 0 1-1.22-.52c.43.6 1.07 1.45 1.85 2.37l-.73 9.68a1.62 1.62 0 0 0 1.2 1.7 13.44 13.44 0 0 0 13.38-3.79c6.73-6.87 9-5.92 10.24-10.1.12-.45.24-.88.33-1.3a4.37 4.37 0 0 0-6.19-4.9c.43-3 .77-6.3.44-8.18-.67-3.9-.54-14.14-.54-14.14l-.94-49s1.75-9.7 3.77-13.46 1.75-17 1.75-17l2.3-43.37 2.28-21s2.15-7.27 4.84.8c0 0-1.48 16.3-.8 20.2s1.6 22.9.94 27.07-3.64 27.07-1.75 32.86 3.9 12.8 3.5 15.08-1.75 52-1.75 52 3.63 9.56.94 12.66-.13 15.5-.13 15.5.32.23.88.56l-.08 1-.84 11.14a1.63 1.63 0 0 0 1.2 1.7 13.46 13.46 0 0 0 13.38-3.79c6.73-6.87 9-5.93 10.24-10.1l.34-1.3a4.38 4.38 0 0 0-7.06-4.35.93.93 0 0 1-.15.13c-.17.15-.35.28-.53.4l-.26.17c.67-3.08 1.65-8.33 1.2-10.8-.67-3.64.67-14.68.67-14.68s3.9-13.2 4-18.45l1.08-42s-.13-17.1.4-21.27 4.84-40.27 9.15-51c3.3-8.26 4.8-29.3 3.9-40l-.15-1.52c5.27-3.96 5.83-10.48 5.83-10.48s-4.85-9.34-9.52-13.3-5.75-10.77-5.57-13.65a7.09 7.09 0 0 0-1.61-4.84c0 0-2.16-7-3.6-7.72a1 1 0 0 1-.31-.24c-1-1.06-.23-4.07-.23-4.07v-.1c.16-.7 1.2-5.22.87-6.38s.18-7.18.18-7.18 3.42-10.23 2.88-18.3 7-7.37 7-7.37l23.3-.24h2.65a19.52 19.52 0 0 0 3-3.21 6.42 6.42 0 0 0 5.15-1.26c4.94-4.52 4.33-13.15 3.66-14.54zm-108.3 70l.17-4.1.9.78a6.56 6.56 0 0 1 0 3.28 3.5 3.5 0 0 1-2 2.28 2.23 2.23 0 0 0-.33.2l-.23-2.34 1.48-.1z" class="B"/><g transform="translate(-69 -52.82)"><path d="M638.9 522.56s13.26 8.53 18.28 4 4.4-13.27 3.72-14.65-6.08-19.13-6.08-19.13L644.4 466.5s-6.34-34.6-15.8-26 5.1 29.33 5.1 29.33 6 15.13 5.66 18.16 3.32 14.13 3.32 14.13z" fill="url(#A)"/><path d="M614.17 830.73l-.35 1.32c-1.23 4.2-3.56 3.26-10.4 10.18a13.73 13.73 0 0 1-13.6 3.82 1.64 1.64 0 0 1-1.22-1.71l.86-11.23.4-5.4s10.9 3.06 16.44-.8c.18-.13.36-.26.53-.4l.16-.13a4.45 4.45 0 0 1 7.17 4.38z" fill="url(#B)"/><path d="M580 826.5l-.34 1.32c-1.23 4.2-3.56 3.26-10.4 10.18a13.77 13.77 0 0 1-13.6 3.83 1.63 1.63 0 0 1-1.22-1.72l1.27-16.64s10.9 3.06 16.43-.8c.2-.13.36-.26.54-.4l.16-.13a4.44 4.44 0 0 1 7.16 4.38z" fill="url(#C)"/><path d="m568.72 828.18.45 5.83c-6.26 6.2-13.7-3-15.9-6.06 5.73 2.94 15.45.23 15.45.23z" fill="url(#D)" class="B"/><path d="M605.47 830.55l.83-.54c-5.72 8.62-14.2 4.64-16.84 3.1l.4-5.4s10.9 3.06 16.44-.8c-.44 2.1-.84 3.66-.84 3.66z" fill="url(#E)" class="B"/><path d="M622.86 667.5c-4.38 10.86-8.76 47.25-9.3 51.46s-.4 21.45-.4 21.45L612 782.76c-.13 5.3-4.1 18.6-4.1 18.6s-1.37 11.14-.7 14.8-1.78 13.3-1.78 13.3l.83-.54c-6.85 10.3-17.66 2.57-17.66 2.57s-2.6-12.5.13-15.6-.95-12.76-.95-12.76l1.78-52.4c.42-2.3-1.56-9.37-3.56-15.2s1.1-28.92 1.78-33.13-.28-23.35-1-27.3.82-20.37.82-20.37c-2.74-8.14-4.93-.8-4.93-.8l-2.2 21.32-2.25 43.77s.28 13.3-1.78 17.1-3.83 13.58-3.83 13.58l1 49.42s-.14 10.32.55 14.26-1.5 14.12-1.5 14.12c-7.66 17.92-20-1.5-20-1.5s.54-3 1.64-3.4-.4-7.74-1.23-9 .13-10 .13-10-.95-8-2.46-17.66-1.1-46.84-.14-49.15 1.78-13 1.78-13-1.1-6.1.28-10.46-3.3-22.67-3.3-24.7-1.78-14.66-2.74-16a8 8 0 0 1-1-3.8s-.14-2.72-2.47-10.86c-1.7-6-.7-17.68 0-23.58l.44-3.58s78.57-12.63 81.72-9.77c.74.66 1.23 3 1.5 6.26.9 10.66-.62 31.9-3.97 40.2z" fill="url(#F)"/><path d="M593.15 728.54c.37 0 9 .73 12.23.1s-12.23-.1-12.23-.1z" fill="url(#G)" class="B"/><path d="M593.8 733.6s12 2.08 12.6 1-12.6-1-12.6-1z" fill="url(#H)" class="B"/><path d="M557.2 731.44s6.2.27 9.58 1.8-9.58-1.8-9.58-1.8z" fill="url(#I)" class="B"/><path d="M534.66 579.2s1 18.92.46 22.26c0 0 2.2 15.3 4 19.2a55.12 55.12 0 0 0 5.75 8.78l5.38-37.56L549 579z" fill="url(#J)"/></g><ellipse cx="522.24" cy="419.28" rx="21.08" ry="20.91" fill="url(#K)"/><g transform="translate(-69 -52.82)"><path d="M580.3 481.88s-6.57 12.76-13.14 18.74 39.42 12.76 40.5 12.76-8.2-27.15-6.57-30.4-20.8-1.1-20.8-1.1z" fill="url(#L)"/><path d="M626.83 627.18a13.66 13.66 0 0 1-3.38 1.88c-8.4 3.26-17.52 7.8-23.73 6s-19.34 0-19.34 0-26.47-2.18-31.76-.9a10.26 10.26 0 0 1-5.46.14l.44-3.58s78.57-12.63 81.72-9.77c.74.64 1.23 2.95 1.5 6.24z" fill="url(#M)" class="B"/><path d="M632.58 615.12s-.73 9-9.13 12.3-17.52 7.8-23.73 6-19.34 0-19.34 0-26.47-2.18-31.76-.9-8-.36-6.4-2.72 1.47-10.13 1.47-13.4-1.83-16.48-.2-18.83 3.1-11.4 6.4-12.85a3.55 3.55 0 0 0 2.05-2.3 6.47 6.47 0 0 0 0-3.31s-.55-.45-1.32-1.13c-1.93-1.7-5.2-4.9-4.16-5.93 1.46-1.45 0-10.87 0-10.87s-3.47-7.24-2.2-9.95-11.13-17-11.13-17 0-24.62 15-25.7c0 0 10.58.37 11.86-4.34s9.67-7.43 9.67-7.43l19.16 4.17s17 3.62 20.08 1.45 5.48 2.9 5.48 2.9 10.58.55 11.68 2.72-3.47 23.35-3.47 23.35-7.67-.72-7.12 7.43-2.92 18.46-2.92 18.46-.55 6-.18 7.24-.72 5.72-.9 6.43v.1s-.76 3 .23 4.1a1.49 1.49 0 0 0 .32.24c1.46.72 3.65 7.78 3.65 7.78a7.13 7.13 0 0 1 1.65 4.89c-.18 2.9.9 9.77 5.65 13.76s9.58 13.35 9.58 13.35z" fill="url(#N)"/><path d="M551.17 573.2v.77l-.34 8.47s-11.22.9-17.34-.64-3.53-8.23-3.3-9.63c.18-1.27 1.82-11.86 1.82-13.58s0-8.78-.27-12 1.37-12.3 1.37-12.3l1.18-1.45 12.87 4.9z" fill="url(#O)"/><path d="m551.15 574-.34 8.47s-11.22.9-17.34-.64-3.53-8.23-3.29-9.63z" fill="url(#P)" class="B"/><path d="M552 582.4a6.47 6.47 0 0 0 0-3.31l-1.32-1.13c9.67-1.33 47.94-6.55 60.84-7.1v.1s-.76 3 .23 4.1z" fill="url(#Q)" class="B"/><path d="M612.87 589s2.37 13.3-6.48 18c0 0 5.02-6.63 6.48-18z" fill="url(#R)" class="B"/><path d="m554.92 607.34s21.35-3.62 25.55-.82-25.55.82-25.55.82z" fill="url(#S)" class="B"/><path d="M605.47 524.88s-3.28 13.4-.82 16.47.82-16.47.82-16.47z" fill="url(#T)" class="B"/><path d="M543.6 513.92s3 5 1.2 10.14-1.2-10.14-1.2-10.14z" fill="url(#U)" class="B"/><path d="m537.4 557.55s3.83 2.27 2.55 5.8-2.55-5.8-2.55-5.8z" fill="url(#V)"/><path d="M537 547.23s3.56 1.9 4 4.7-4-4.7-4-4.7z" fill="url(#W)" class="B"/><path d="M589.78 655.5s22.36 2.27 26.83-3c0 .02-20.17 4-26.83 3z" fill="url(#X)" class="B"/><path d="M551.18 654.23s24 5.6 28.74 1.17c0 0-20.62 1.54-28.74-1.17z" fill="url(#Y)" class="B"/><path d="M591.5 662.83s10 0 14.7.27-14.7-.27-14.7-.27z" fill="url(#Z)" class="B"/><path d="M552.82 667.08s4.93 5.52 10.5 4.53-10.5-4.53-10.5-4.53z" fill="url(#a)" class="B"/><path d="M562.5 441c-1.55 2.38-1.6 5.13-2 7.77a32.32 32.32 0 0 1-8.76 17.19c-4.38 4.62-10.4 8.8-11.52 14.44-1.07 5.36 2.57 10.5 4.48 15.72 5 13.75-2 28.16-4.05 42.35-.56 3.92.12 8.93 5 10.23 1.52.4 3.26.36 4.62 1 1.84.87 2.4 2.68 2.74 4.3a65.67 65.67 0 0 1 1.25 17.73c-.22 3.34-.46 7.17 2.7 9.46a16.13 16.13 0 0 0 5.26 2.08c5 1.34 11.47 2.4 14.84-.72 1.42-1.3 2-3.17 3.7-4.2 2.64-1.55 6.4-.5 9.72-.34a17.65 17.65 0 0 0 15.81-8.42c2.7-4.8 2.46-10.3 1.46-15.47s-2.72-10.3-2.85-15.54a9 9 0 0 1 1.18-5.27c2-3.12 6.77-4.54 10-7 6.06-4.6 6-12.14 3.84-18.45s-6.16-12.34-6.65-18.86a7.16 7.16 0 0 1 .9-4.56 17.78 17.78 0 0 1 3.68-3.42c8.85-7.4 7.8-19.6.5-27.92-8.12-9.27-44.8-29.17-55.86-12.1z" fill="url(#b)"/></g><g transform="translate(-69 -52.82)" class="B"><path d="M545.82 501.8a34.07 34.07 0 0 0-1.39-16.32l-3.38-7.88a11.19 11.19 0 0 0-1.1 3c-1.08 5.35 2.57 10.5 4.48 15.72a28.42 28.42 0 0 1 1.39 5.48z" fill="url(#c)"/><path d="M554 561.1a65.3 65.3 0 0 0-1.26-17.73c-.34-1.63-.9-3.44-2.73-4.3-1.37-.65-3.1-.6-4.63-1a6.31 6.31 0 0 1-4.26-3.5l-.72 4.13c-.57 3.92.1 8.93 5 10.23 1.52.4 3.26.36 4.63 1 1.83.87 2.4 2.68 2.73 4.3a65.14 65.14 0 0 1 1.18 8.19c-.02-.43.06-.88.06-1.32z" fill="url(#d)"/><path d="M606 559a17.64 17.64 0 0 1-15.8 8.42c-3.33-.16-7.08-1.2-9.72.34-1.76 1-2.3 2.9-3.7 4.2-3.37 3.13-9.84 2.06-14.84.72a16 16 0 0 1-5.26-2.08 6.46 6.46 0 0 1-2.59-4.18c0 1.86 0 3.73-.12 5.6-.22 3.33-.46 7.16 2.7 9.45a16 16 0 0 0 5.26 2.08c5 1.35 11.47 2.4 14.84-.72 1.4-1.3 2-3.16 3.7-4.2 2.64-1.56 6.4-.5 9.72-.34a17.62 17.62 0 0 0 15.8-8.43c2.6-4.62 2.48-9.86 1.58-14.86a16.18 16.18 0 0 1-1.58 4z" fill="url(#e)"/><path d="m617.59 470.4a17.84 17.84 0 00-3.69 3.42 7.17 7.17 0 00-.89 4.56 23.57 23.57 0 001.25 5.81 25 25 0 013.33-2.93c6-5 7.44-12.2 5.5-18.91a17.37 17.37 0 01-5.5 8.05z" fill="url(#f)"/><path d="m615.82 515.69c-3.24 2.45-8 3.87-10 7a8.93 8.93 0 00-1.18 5.27 36.29 36.29 0 00.78 6.3 7.14 7.14 0 01.4-.71c2-3.11 6.76-4.54 10-7 5.53-4.2 6-10.85 4.36-16.78a12.67 12.67 0 01-4.36 5.92z" fill="url(#g)"/></g><g transform="translate(-69 -52.82)"><path d="M657.5 517.9c-3.74 9.4-8.58 13.12-8.58 13.12h-2.7l-23.68.24-2.74-7.42 3.84-16 2.36.15a13.7 13.7 0 0 0 4.56 1.45c1.73 0 5.1-.1 6.1.36a.79.79 0 0 0 .45.06c.9-.1 1.84-1.42 1.84-1.42s22.27.04 18.53 9.46z" fill="url(#h)"/><path d="M657.5 517.9c-3.74 9.4-8.58 13.12-8.58 13.12h-2.7c1.4-3.73 4.36-11.4 5.52-13.15s-8.8-5.84-14.6-8.1c.9-.1 1.84-1.42 1.84-1.42s22.26.12 18.52 9.54z" fill="url(#i)" class="B"/></g><path d="M569.2 472.38s13 8.46 18 3.94 4.33-13.16 3.66-14.53-6-19-6-19l-10.27-26.07s-6.23-34.3-15.53-25.75 5 29.1 5 29.1 5.87 15 5.57 18 3.27 14 3.27 14z" fill="#efb7b9"/><path d="M544.87 778.04l-.34 1.3c-1.22 4.17-3.5 3.23-10.24 10.1a13.46 13.46 0 0 1-13.38 3.79 1.63 1.63 0 0 1-1.2-1.7l1.24-16.5s10.72 3 16.17-.8c.18-.13.36-.26.53-.4a.93.93 0 0 0 .15-.13 4.38 4.38 0 0 1 7.06 4.35zm-33.65-4.2l-.33 1.3c-1.22 4.18-3.5 3.23-10.24 10.1a13.44 13.44 0 0 1-13.38 3.79 1.62 1.62 0 0 1-1.2-1.7l1.24-16.5s10.72 3 16.17-.8a6.14 6.14 0 0 0 .53-.4l.15-.14a4.38 4.38 0 0 1 7.05 4.36z" class="F"/><path d="M500.15 775.5l.44 5.8c-6.15 6.14-13.48-3-15.64-6 5.66 2.88 15.2.2 15.2.2zm36.15 2.36l.8-.53c-5.62 8.54-14 4.6-16.57 3.07l.4-5.36s10.72 3 16.17-.8c-.43 2.1-.82 3.63-.82 3.63z" class="B"/><path d="M553.4 616.18c-4.3 10.77-8.62 46.86-9.15 51s-.4 21.27-.4 21.27l-1.08 42c-.13 5.25-4 18.45-4 18.45s-1.34 11-.67 14.68-1.75 13.2-1.75 13.2l.8-.54c-6.73 10.23-17.37 2.56-17.37 2.56s-2.56-12.4.13-15.5-.94-12.66-.94-12.66l1.75-52c.4-2.3-1.62-9.3-3.5-15.08s1.08-28.7 1.75-32.86-.27-23.17-.94-27.07.8-20.2.8-20.2c-2.7-8.08-4.84-.8-4.84-.8l-2.16 21.14-2.33 43.4s.27 13.2-1.75 17S504 697.6 504 697.6l.94 49s-.13 10.24.54 14.14-1.48 14-1.48 14c-7.54 17.77-19.66-1.48-19.66-1.48s.54-3 1.6-3.37-.4-7.68-1.2-8.9.14-10 .14-10l-2.43-17.5c-1.43-9.56-1.07-46.46-.13-48.75s1.75-12.93 1.75-12.93-1.08-6.06.27-10.37-3.23-22.5-3.23-24.5-1.75-14.54-2.7-15.9a8 8 0 0 1-.94-3.77s-.13-2.7-2.42-10.77c-1.67-5.9-.7-17.53 0-23.4l.44-3.55s77.3-12.52 80.4-9.7c.72.66 1.2 3 1.48 6.2.83 10.74-.65 31.8-3.96 40.1z" fill="#fd1b37"/><path d="M524.2 676.68c.36 0 8.9.72 12 .1s-12-.1-12-.1zm.62 5.02s11.76 2.07 12.4 1-12.4-1-12.4-1zm-36-2.14s6.1.27 9.42 1.8-9.42-1.8-9.42-1.8z" class="B"/><g fill="#efb7b9"><path d="M466.64 528.55s1 18.76.45 22.08c0 0 2.16 15.18 3.95 19a55.07 55.07 0 0 0 5.66 8.71l5.3-37.22-1.25-12.75z"/><circle cx="522.31" cy="422.34" r="20.74"/><path d="M511.53 432.04s-6.46 12.65-12.93 18.58 38.8 12.66 39.87 12.66-8.08-26.94-6.47-30.17-20.47-1.07-20.47-1.07z"/></g><path d="M557.32 576.18a13.55 13.55 0 0 1-3.32 1.87c-8.26 3.23-17.24 7.72-23.35 5.92s-19 0-19 0-26-2.15-31.24-.9a10.07 10.07 0 0 1-5.41.11l.44-3.55s77.3-12.52 80.4-9.7c.72.66 1.2 2.95 1.48 6.24z" class="B"/><g class="C"><path d="M563 564.18s-.72 9-9 12.2-17.24 7.72-23.35 5.93-19 0-19 0-26-2.16-31.24-.9-7.9-.36-6.3-2.7 1.44-10 1.44-13.28-1.8-16.34-.18-18.68 3-11.3 6.3-12.75a3.5 3.5 0 0 0 2-2.28 6.56 6.56 0 0 0 0-3.28s-.54-.45-1.3-1.12c-1.9-1.7-5.12-4.85-4.08-5.88 1.43-1.44 0-10.78 0-10.78s-3.42-7.18-2.16-9.87-11-16.88-11-16.88 0-24.42 14.73-25.5c0 0 10.4.36 11.67-4.3s9.52-7.36 9.52-7.36l18.85 4.13s16.7 3.6 19.75 1.44 5.35 2.86 5.35 2.86 10.4.54 11.5 2.7-3.4 23.16-3.4 23.16-7.54-.7-7 7.37-2.88 18.3-2.88 18.3-.54 5.93-.18 7.18-.7 5.68-.87 6.38v.1s-.74 3 .23 4.07a1 1 0 0 0 .31.24c1.44.7 3.6 7.72 3.6 7.72a7.09 7.09 0 0 1 1.61 4.84c-.18 2.88.9 9.7 5.57 13.65s9.53 13.3 9.53 13.3z"/><path d="M482.9 522.62v.76l-.33 8.4s-11 .9-17-.63-3.48-8.16-3.25-9.55c.18-1.26 1.8-11.77 1.8-13.47s0-8.7-.27-11.94 1.34-12.2 1.34-12.2l1.17-1.44L479 487.4z"/></g><path d="M482.86 523.38l-.33 8.4s-11 .9-17-.63-3.48-8.16-3.25-9.55z" class="B"/><path d="M483.66 531.74a6.56 6.56 0 0 0 0-3.28l-1.3-1.12c9.52-1.32 47.17-6.5 59.86-7v.1s-.74 3 .23 4.07zm59.92 6.5s2.34 13.2-6.37 17.87c0 0 4.94-6.55 6.37-17.87zm-57 18.23s21-3.6 25.14-.8-25.14.8-25.14.8zm49.73-81.8s-3.23 13.3-.8 16.34.8-16.34.8-16.34zm-60.86-10.86s3 4.93 1.17 10.05-1.17-10.05-1.17-10.05z" class="B"/><path d="M469.34 507.1s3.77 2.25 2.5 5.75-2.5-5.75-2.5-5.75z" fill="#062a65"/><path d="M469 496.86s3.5 1.88 3.95 4.66-3.95-4.66-3.95-4.66zm51.87 107.37s22 2.25 26.4-3c0 .04-19.84 3.95-26.4 3zm-37.97-1.26s23.6 5.57 28.28 1.17c0 .04-20.3 1.53-28.28-1.17zm39.67 8.53s9.88 0 14.46.27-14.46-.27-14.46-.27zm-38.07 4.22s4.85 5.48 10.32 4.5-10.32-4.5-10.32-4.5z" class="B"/><path d="M494 391.44c-1.52 2.36-1.57 5.1-2 7.7a32.14 32.14 0 0 1-8.62 17c-4.3 4.58-10.2 8.73-11.33 14.32-1.05 5.3 2.53 10.42 4.4 15.6 5 13.63-2 27.93-4 42-.56 3.9.1 8.86 4.9 10.15 1.5.4 3.2.35 4.56 1 1.8.86 2.35 2.66 2.68 4.27a65.47 65.47 0 0 1 1.24 17.59c-.22 3.3-.46 7.1 2.66 9.4a16.1 16.1 0 0 0 5.18 2.06c4.92 1.33 11.28 2.38 14.6-.72 1.4-1.3 1.9-3.14 3.65-4.17 2.6-1.54 6.3-.5 9.56-.34a17.33 17.33 0 0 0 15.55-8.35c2.65-4.78 2.42-10.2 1.44-15.34s-2.68-10.22-2.8-15.42a8.91 8.91 0 0 1 1.16-5.22c2-3.1 6.65-4.5 9.84-6.94 6-4.56 5.94-12 3.78-18.3s-6.07-12.24-6.55-18.7a7.17 7.17 0 0 1 .88-4.52 18.18 18.18 0 0 1 3.71-3.31c8.7-7.35 7.68-19.43.48-27.7-7.98-9.2-44.08-28.93-54.98-12.05z" fill="#e59e00"/><path d="M477.63 451.8a34.17 34.17 0 0 0-1.38-16.19c-.94-2.6-2.32-5.2-3.33-7.8a11.65 11.65 0 0 0-1.08 3c-1.05 5.3 2.53 10.42 4.4 15.6a28 28 0 0 1 1.38 5.41zm8.02 58.82a65.47 65.47 0 0 0-1.24-17.59c-.33-1.6-.88-3.4-2.68-4.27-1.35-.65-3.06-.6-4.56-1a6.26 6.26 0 0 1-4.19-3.47 83.3 83.3 0 0 0-.71 4.09c-.56 3.9.1 8.86 4.9 10.15 1.5.4 3.2.35 4.56 1 1.8.87 2.35 2.66 2.68 4.28a65.86 65.86 0 0 1 1.16 8.12l.08-1.3zm51.2-2.12a17.32 17.32 0 0 1-15.55 8.35c-3.27-.16-7-1.2-9.56.34-1.73 1-2.26 2.87-3.65 4.17-3.32 3.1-9.68 2.05-14.6.72a15.75 15.75 0 0 1-5.17-2.07 6.52 6.52 0 0 1-2.56-4.14c0 1.84 0 3.7-.1 5.53-.22 3.3-.46 7.1 2.67 9.4a16 16 0 0 0 5.17 2.06c4.92 1.33 11.28 2.38 14.6-.7 1.4-1.3 1.92-3.15 3.65-4.18 2.6-1.54 6.3-.5 9.56-.34a17.32 17.32 0 0 0 15.55-8.35c2.55-4.6 2.44-9.78 1.55-14.74a16.27 16.27 0 0 1-1.55 3.97zm11.38-87.85a17.62 17.62 0 0 0-3.63 3.39 7.17 7.17 0 0 0-.88 4.52 24.18 24.18 0 0 0 1.24 5.77 23.63 23.63 0 0 1 3.27-2.91c5.9-5 7.32-12.1 5.4-18.75a17.18 17.18 0 0 1-5.41 7.98zm-1.73 44.92c-3.2 2.43-7.84 3.84-9.84 6.93a9 9 0 0 0-1.16 5.23 36.69 36.69 0 0 0 .77 6.25 4.8 4.8 0 0 1 .39-.7c2-3.1 6.65-4.5 9.84-6.94 5.44-4.17 5.9-10.76 4.3-16.64a12.64 12.64 0 0 1-4.29 5.87z" class="B"/><path d="M587.5 467.77c-3.68 9.34-8.45 13-8.45 13h-2.65l-23.3.24-2.7-7.36 3.77-15.9 2.33.1a13.44 13.44 0 0 0 4.49 1.44c1.7 0 5-.1 6 .36a.83.83 0 0 0 .44.06c.88-.1 1.8-1.4 1.8-1.4s21.92.13 18.25 9.47z" class="C"/><path d="M587.5 467.77c-3.68 9.34-8.45 13-8.45 13h-2.65c1.4-3.7 4.3-11.3 5.44-13s-8.67-5.8-14.37-8c.88-.1 1.8-1.4 1.8-1.4s21.9.07 18.23 9.4z" opacity=".355" fill="#062a65"/></svg>