<svg xmlns="http://www.w3.org/2000/svg" xmlns:xlink="http://www.w3.org/1999/xlink" viewBox="0 0 409 300.05"><style><![CDATA[.B{fill:#8ed16f}.C{fill:#072f70}.D{fill:#da9e00}.E{opacity:.3}.F{opacity:.1}.G{fill:#007bff}.H{fill:#618fd8}.I{fill:#f7c4a7}]]></style><defs><linearGradient id="A" x1=".5" x2=".5" y1="1"><stop stop-color="gray" stop-opacity=".25" offset="0"/><stop stop-color="gray" stop-opacity=".122" offset=".54"/><stop stop-color="gray" stop-opacity=".102" offset="1"/></linearGradient><linearGradient id="B" x1="9.926" x2="9.926" xlink:href="#A"/><path id="C" d="M377.44 104.21s-5.42-14.055-9.637-14.454 8.03 0 8.03 0l4.014 7.227z"/><path id="D" d="M362.66 265.99l.42 3.935c.2-1.205 12.648-6.626 12.648-6.626v-3.263c-.317-.012-.635.003-.95.046-2.404.447-4.7 1.382-6.72 2.746-1.745 1.145-3.547 2.2-5.4 3.162z"/><path id="E" d="M332.37 264.51c2.608-1.205 13.65 2.608 13.65 2.608l1.117-3.8a59.9 59.9 0 0 1-5.724-1.457 19.04 19.04 0 0 1-2.57-.949 17.2 17.2 0 0 0-1.713-.8 8.89 8.89 0 0 0-4.418-.038l-.343 4.436z"/><path id="F" d="M320.42 75.347h-21.48v-.454h21.48z"/><path id="G" d="M265.98 53.232l3.726-6.88 13.4 7.262-3.726 6.88z"/><path id="H" d="M181 270.06l1.428-7.696 15 2.783-1.428 7.696z"/></defs><path d="M54.13 152.01c-5.38 1.625-10.414 5.56-11.758 11.02-1.537 6.274 2.007 12.6 2.52 19.04 1.654 21.105-28.37 36-24.087 56.727 1.7 8.243 8.575 14.307 15.348 19.316 10.85 8 22.9 15.067 36.222 17.06 20.236 3.032 41.38-5.88 61.048-.248 15.865 4.544 28 17.86 43.76 22.772 11.993 3.74 24.914 2.268 37.373.752 6.72-.815 13.757-1.755 19.178-5.786 10.078-7.5 10.712-22.323 17.46-32.943 10.422-16.377 33.274-19.593 52.435-16.4s37.768 11.02 57.18 10.38c4.15-.14 8.4-.7 12.018-2.738 4.4-2.473 7.374-6.832 10-11.145a180.33 180.33 0 0 0 26.148-89.607c.113-5.438-.08-11.11-2.637-15.91-3.233-6.072-9.7-9.7-16.13-12.148-15.45-5.88-32.514-6.84-47.652-13.47-14.6-6.4-26.425-17.61-39.14-27.223a208.48 208.48 0 0 0-85.869-38.242c-7.3-1.41-14.882-2.42-22.138-.79-8.36 1.877-15.566 7.088-22.046 12.7-17.238 14.924-31.053 33.337-46.94 49.693a267.23 267.23 0 0 1-35.66 30.751c-5.88 4.237-12.127 9.268-18.678 12.4-5.99 2.865-11.614 2.14-17.955 4.05z" opacity=".2" class="G"/><path d="M130.96 19.38s-16.23 21.554-4.62 46.678-20.236 65.49-20.236 65.49" fill="none" stroke="#535461" stroke-miterlimit="10" stroke-width="2"/><g class="B"><path d="M138.24 11.31c-1.29 5.547-7.458 8.852-7.458 8.852s-4.073-5.7-2.784-11.237 4.62-9.51 7.458-8.852 4.07 5.69 2.784 11.237z"/><ellipse cx="3.238" cy="1.214" rx="3.238" ry="1.214" transform="matrix(.226651 -.973976 .973976 .226651 131 12.945)"/></g><ellipse transform="matrix(.226651 -.973976 .973976 .226651 131 12.945)" cx="3.238" cy="1.214" rx="3.238" ry="1.214" class="E"/><g class="B"><path d="M135.43 35.95c-5.358 1.932-11.485-1.453-11.485-1.453s2.562-6.513 7.924-8.44 10.5-1.26 11.485 1.453-2.566 6.508-7.924 8.44z"/><ellipse cx="3.238" cy="1.214" rx="3.238" ry="1.214" transform="matrix(.94 -.34 .34 .94 130.06 30.497)"/></g><ellipse transform="matrix(.94 -.34 .34 .94 130.06 30.497)" cx="3.238" cy="1.214" rx="3.238" ry="1.214" class="E"/><g class="B"><path d="M134.2 55.59c-5.358 1.932-11.485-1.453-11.485-1.453s2.56-6.513 7.924-8.44 10.5-1.26 11.485 1.453-2.566 6.512-7.924 8.44z"/><ellipse cx="3.238" cy="1.214" rx="3.238" ry="1.214" transform="matrix(.940881 -.338738 .338738 .940881 128.88 50.426)"/></g><ellipse transform="matrix(.940881 -.338738 .338738 .940881 128.88 50.426)" cx="3.238" cy="1.214" rx="3.238" ry="1.214" class="E"/><g class="B"><path d="M140.45 78.63c-5.358 1.932-11.485-1.453-11.485-1.453s2.562-6.513 7.924-8.44 10.5-1.26 11.485 1.453-2.56 6.52-7.924 8.44z"/><ellipse cx="3.238" cy="1.214" rx="3.238" ry="1.214" transform="matrix(.940881 -.338738 .338738 .940881 135.14 73.477)"/></g><ellipse transform="matrix(.940881 -.338738 .338738 .940881 135.14 73.477)" cx="3.238" cy="1.214" rx="3.238" ry="1.214" class="E"/><g class="B"><path d="M136.37 99.71c-5.358 1.932-11.485-1.453-11.485-1.453s2.56-6.513 7.924-8.44 10.5-1.26 11.485 1.453-2.557 6.512-7.924 8.44z"/><ellipse cx="3.238" cy="1.214" rx="3.238" ry="1.214" transform="matrix(.94 -.34 .34 .94 131.08 94.198)"/></g><ellipse transform="matrix(.94 -.34 .34 .94 131.08 94.198)" cx="3.238" cy="1.214" rx="3.238" ry="1.214" class="E"/><g class="B"><path d="M111.24 41.53c3.956 4.1 10.947 3.78 10.947 3.78s.575-6.975-3.38-11.073-8.856-5.786-10.947-3.78-.572 6.975 3.38 11.073z"/><ellipse cx="1.214" cy="3.238" rx="1.214" ry="3.238" transform="matrix(.719 -.695 .695 .719 112.06 36.265)"/></g><ellipse transform="matrix(.719 -.695 .695 .719 112.06 36.265)" cx="1.214" cy="3.238" rx="1.214" ry="3.238" class="E"/><g class="B"><path d="M108.97 106.62c3.956 4.1 10.947 3.78 10.947 3.78s.575-6.975-3.38-11.073-8.856-5.786-10.947-3.78-.576 6.975 3.38 11.073z"/><ellipse cx="1.214" cy="3.238" rx="1.214" ry="3.238" transform="matrix(.719 -.695 .695 .719 109.78 101.351)"/></g><ellipse transform="matrix(.719 -.695 .695 .719 109.78 101.351)" cx="1.214" cy="3.238" rx="1.214" ry="3.238" class="E"/><g class="B"><path d="M114.22 64.53c5.1 2.545 11.577-.1 11.577-.1s-1.785-6.765-6.878-9.3-10.28-2.52-11.577.1 1.78 6.765 6.878 9.3z"/><ellipse cx="1.214" cy="3.238" rx="1.214" ry="3.238" transform="matrix(.44651 -.894779 .894779 .44651 113.21 59.286)"/></g><ellipse transform="matrix(.44651 -.894779 .894779 .44651 113.21 59.286)" cx="1.214" cy="3.238" rx="1.214" ry="3.238" class="E"/><g class="B"><path d="M116.36 87.45c5.1 2.545 11.577-.1 11.577-.1s-1.785-6.765-6.878-9.3-10.28-2.52-11.577.1 1.798 6.8 6.878 9.3z"/><ellipse cx="1.214" cy="3.238" rx="1.214" ry="3.238" transform="matrix(.44651 -.894779 .894779 .44651 115.35 82.204)"/></g><ellipse transform="matrix(.44651 -.894779 .894779 .44651 115.35 82.204)" cx="1.214" cy="3.238" rx="1.214" ry="3.238" class="E"/><g class="B"><path d="M52.8 65.7s29.642 29.642 12.908 73.63 28.685 117.13 28.685 117.13-.487-.07-1.4-.23c-60.888-10.746-91.122-80.377-57.277-132.1C48.294 104.894 58.645 82.336 52.8 65.7z"/><path d="M0 185.6s33.824-5.388 36.907 24.926 65.04 34.517 65.04 34.517l-1.163.773c-51.16 33.594-100.06 21.39-92.693-23.2C10.838 206.035 10.61 189.385 0 185.6z"/></g><path d="M0 185.59s33.824-5.388 36.907 24.926 65.04 34.517 65.04 34.517l-1.163.773c-51.16 33.594-100.06 21.39-92.693-23.2 2.746-16.582 2.52-33.232-8.092-37.016z" fill="#fff" class="E"/><ellipse cx="44.234" cy="160.958" rx="9.301" ry="24.267" class="B"/><ellipse cx="44.234" cy="160.958" rx="9.301" ry="24.267" class="E"/><g transform="matrix(.707107 -.707107 .707107 .707107 19.219 233.791)"><ellipse cx="6.269" cy="13.954" rx="6.269" ry="13.954" class="B"/><ellipse cx="6.269" cy="13.954" rx="6.269" ry="13.954" class="E"/></g><path d="M303.97 111.47H83.8a10.03 10.03 0 0 0-10.032 10.032v129.05a10.03 10.03 0 0 0 10.032 10.032h220.18c5.54-.002 10.028-4.493 10.028-10.032v-129.05c0-5.54-4.49-10.03-10.028-10.032z" fill="url(#A)"/><g class="G"><rect width="234.59" height="145.61" rx="24.81" x="76.589" y="113.231"/><path d="M76.59 138.71h234.6v26.694H76.59z"/></g><path d="M76.59 138.71h234.6v26.694H76.59z" class="C"/><path fill="#d6d6e3" d="M98.836 185.22h190.1v12.942h-190.1z"/><circle cx="114.609" cy="230.528" r="18.607" class="G"/><circle cx="114.609" cy="230.528" r="18.607" class="E"/><path d="M297.84 77.33c.3.95.938 1.757 1.793 2.268 3.86 2.55 12.25 2.007 13.257 2.007.214 0 .5.382.806 1.025a70.89 70.89 0 0 1 3.935 14.034c.206 2.44 2.473 13.857 6.185 18.11a9.57 9.57 0 0 0 .336.365c3.64 3.657 7.91-.365 7.91-.365l.613-2.13-.56 2.914a68.41 68.41 0 0 0-.286 1.734c-.553 3.383-.844 6.805-.87 10.233a37.12 37.12 0 0 0 .16 3.729 24.39 24.39 0 0 0 .118 1.016c.2 1.5.282 3.03.277 4.552a123.73 123.73 0 0 1-2.339 20.278l.088-.03-.088.42.134-.042q-.1.626-.185 1.28c-.78 5.67-1.23 12.724-1.445 16.8-.11 2.15-.015 4.303.285 6.433l4.1 28.853v13.437a23.72 23.72 0 0 0 .739 6.038c1.335 5.077.235 22.8-.382 31.2l-.344 4.36v.14l.118-.046v.147c.175-.075.358-.13.546-.16-1.625 2.52-4.57 6.685-6.832 7.386a7.17 7.17 0 0 0-3.414 2.263l-.06.08-.084.118a2.52 2.52 0 0 0-.491 1.285c-.033-.08-.058-.163-.076-.248-.172.936.39 1.793 2.158 2.21 1.03.197 2.08.28 3.128.252 6.13 0 17.01-1.885 18.212-3.914v-7l.2.063v.063l.752.248 2.062-6.92c2.473-1.83.42-34.6 0-42.126-.378-6.86 3.867-34.156 4.62-38.964l-.1-.122.113-.7a2.97 2.97 0 0 1 .42.369c.247.293.462.61.643.95a12.69 12.69 0 0 1 .911 1.881c4.15 10.347 6.017 39.934 6.017 42.588v27.83c-.008 2.746.373 5.48 1.134 8.117.38 1.388.676 2.8.882 4.224l.235 1.642.2 1.63a3.41 3.41 0 0 0 .042.374c.007.057.007.115 0 .172l.172 1.814a.42.42 0 0 1 .084-.164l.02.265c.03-.1.086-.2.164-.26a3.98 3.98 0 0 1 .554-.454v3.536l-.1-.076v.61c4.275 3.225 11.233 4.2 16.574 4.16 3.464 0 6.27-.42 7.244-.907 1.394-.684.63-2.28-.638-3.5a4.79 4.79 0 0 0-3.074-1.587c-1.352.147-5.975-5.09-8.4-7.957l.273-.122.386-.168v-46.397s.622-18.317 2.473-36.432a64.45 64.45 0 0 0-3.17-27.026l-.06-.172.563.088.915.147c-.004-.14-.017-.28-.038-.42h.038s-.722-7.857-.73-17.725c0-11.187.945-24.826 4.854-32.544 2.25-4.443 3-7.978 2.94-10.767a11.26 11.26 0 0 0-2.011-6.887 5.46 5.46 0 0 0-2.314-1.831l-.08-.046h-.042c-.675-.273-1.396-.416-2.125-.42h-8.445a5.64 5.64 0 0 1-2.788-.735l-3.3-1.873a16.76 16.76 0 0 1-1.025-8.184c0-.223.042-.445.063-.663l.24-.252c.185-.2.357-.42.525-.61a4.64 4.64 0 0 1-.038.5c-.042.265-.113.42-.227.453 1.806-.235 3.82-.592 4.93-1.986.046-.055.088-.113.13-.172a9 9 0 0 0 .81-1.68c.155-.4.363-.78.617-1.125.277-.36.638-.655.936-1l.05-.06c1.062-1.26 1.12-3.065 1.134-4.71.02-4-.1-8.4-2.77-11.4-2.22-2.494-5.765-3.44-9.13-3.548s-6.72.5-10.078.512c-2.284 0-5.04-.038-6.3 1.852-.617.928-.693 2.142-1.365 3.032-.386.512-.978.953-1.012 1.59-.004.295.07.585.218.84v.03a5.94 5.94 0 0 0 4.35 2.918c-.305.367-.586.755-.84 1.16-1.103 1.762-1.685 3.8-1.68 5.88a6.86 6.86 0 0 0 .025.722 11.1 11.1 0 0 0 3.519 7.395l-.105.7.076.067q.357.323.743.613l.092.07v.42c.004.244-.004.488-.025.73s0 .386-.025.58l-4.155-3.473-6.6-6.106s-16.494-12.005-17.322-6.3a4.11 4.11 0 0 0 .785 2.847c3.028 4.62 13.438 8.55 13.438 8.55a87.99 87.99 0 0 1 10.359 13.639 7.85 7.85 0 0 1-.449.227c-3.7 1.717-9.087.99-9.087.99-6.227.97-6.8 7.794-6.756 10.553v.57l-8.29-19.46c-.548-1.284-1.714-2.2-3.09-2.427-5.53-.93-19.34-2.865-18.185 1.213zm34.6 188.54c.12-.03.242-.05.365-.067l-.038.06z" fill="url(#B)"/><path d="M373.72 261.9s7.827 9.84 9.637 9.637 6.022 3.813 3.616 5.04-16.26 2.007-23.1-3.212V265.5zm-39.54.6s-4.62 8.23-7.827 9.238-6.022 4.62-1.806 5.623 19.274-1.205 20.677-3.616V263.1z" fill="#aca9c9"/><path d="M328.37 181.64l3.99 28.462v13.232c-.012 2.007.23 4.008.722 5.954 1.3 5 .23 22.487-.374 30.78l-.348 4.434c2.608-1.205 13.65 2.608 13.65 2.608l2.007-6.823c2.4-1.806.42-34.127 0-41.572-.273-5.085 1.995-21.57 3.448-31.452l.966-6.39.2-1.306a4.4 4.4 0 0 1 1.083 1.306c.346.593.642 1.214.886 1.856 4.04 10.208 5.88 39.393 5.88 41.992v27.446a28.94 28.94 0 0 0 1.1 8.008 41.95 41.95 0 0 1 1.087 5.782c.286 2.18.42 3.935.42 3.935.2-1.205 12.648-6.626 12.648-6.626v-45.773s.6-18.056 2.4-35.937c.778-8.133-.006-16.34-2.3-24.18-.5-1.71-1-3.158-1.432-4.3-.735-1.953-1.26-3.032-1.26-3.032h-41c-.69.13-1.26 1.516-1.776 3.62-.336 1.41-.63 3.14-.886 5.04-.76 5.59-1.2 12.547-1.407 16.57a33.53 33.53 0 0 0 .29 6.37z" class="H"/><path d="M375.03 263.4v-45.77s.6-18.056 2.4-35.937a62.6 62.6 0 0 0-5.039-31.519h.8c4.36 9.9 6.094 20.754 5.04 31.52-1.784 17.868-2.4 35.937-2.4 35.937v45.77s-12.446 5.42-12.648 6.626a6 6 0 0 0-.063-.731c2.715-1.882 11.9-5.895 11.9-5.895zm-41.46.98a3.1 3.1 0 0 0-1.1.227v-.2c.365-.036.733-.045 1.1-.025zm13.75-4c2.4-1.806.42-34.127 0-41.572s4.62-39.145 4.62-39.145a3.5 3.5 0 0 1 .693.714c-.74 4.737-4.87 31.666-4.506 38.43.42 7.428 2.4 39.75 0 41.572l-2.007 6.824-.73-.244z" class="F"/><path d="M336.6 100.5l-4.2 14.857s-4.417 4.2-8.03 0-5.837-15.457-6.055-17.868-3.414-14.857-4.62-14.857-13.248.8-14.655-4.2c-1.125-4.023 12.32-2.1 17.7-1.2a3.99 3.99 0 0 1 3.011 2.394L328 99.342s4.375-5.064 8.6 1.16zm27.08-34.54s-5.22 14.655 1.407 19.875-23.7 6.626-23.7 6.626l4.115-3.914s2.9-11.544.9-21.18z" class="I"/><path d="M357.25 85.84s5.32-1.306 5.32-2.708l4.716 2.708h11.846s8.634 4.816 1.407 19.274-4.014 49.97-4.014 49.97-25.695-4.62-46.977 2.4c0 0 3.212-15.86 2.007-24.893s2.007-21.68 2.007-21.68l1.806-7.63s-.1-7.14-7.53-3.515c0 0-1.1-10.338 6.525-11.544 0 0 8.818 1.205 11.443-3.212 0 .018 5.825 3.432 11.443.82z" class="F"/><path d="M357.25 85.44s5.32-1.306 5.32-2.708l3.456 1.986a5.46 5.46 0 0 0 2.713.722h8.285a5.46 5.46 0 0 1 4.439 2.259c1.9 2.675 3.607 7.95-.924 17.015-7.227 14.454-4.015 49.97-4.015 49.97s-25.695-4.62-46.976 2.4c0 0 3.212-15.86 2.007-24.893s2.007-21.65 2.007-21.65l1.806-7.63s-.1-7.14-7.53-3.515c0 0-1.075-10.053 6.21-11.49a2.06 2.06 0 0 1 .617-.042c1.558.164 8.818.69 11.145-3.246-.006.006 5.82 3.42 11.437.812z" fill="#e59e00"/><path d="M377.54 103.7s-6.425 4.014-16.864 0c0 0-11.443-4.2-15.058-12.446s18.266 1.407 18.266 1.407 4.62 0 6.022-1 11.245 7.623 7.634 12.04z" class="F"/><path d="M377.54 102.9s-6.425 4.014-16.864 0c0 0-11.443-4.2-15.058-12.446s-12.043-17.28-12.043-17.28-14.655-5.623-13.857-11.24 16.864 6.223 16.864 6.223l6.425 6.022 20.878 17.666s4.62 0 6.022-1 11.244 7.638 7.633 12.056z" class="I"/><path d="M346.22 67.97l17.263-1.407a39.63 39.63 0 0 0-1.8 8.176c-4.175 4.33-11.05 4.516-15.453.42a19.62 19.62 0 0 0-.01-7.189z" class="F"/><circle cx="353.95" cy="66.466" r="11.04" class="I"/><path d="M360 68.86c-.647-1.067.668-2.457.235-3.624-.4-1.075-1.986-1.26-2.52-2.263-.42-.8 0-1.806-.168-2.7-.37-1.157-1.447-1.94-2.662-1.932a9.5 9.5 0 0 0-3.439.76 13.2 13.2 0 0 1-5.665.873 5.94 5.94 0 0 1-4.678-2.969 1.68 1.68 0 0 1-.214-.815c.034-.63.613-1.062.987-1.566.655-.878.73-2.074 1.327-3 1.218-1.864 3.893-1.818 6.118-1.827 3.275 0 6.534-.613 9.81-.5s6.72 1.037 8.9 3.5c2.6 2.96 2.72 7.294 2.7 11.24 0 1.625-.067 3.393-1.1 4.648-.3.365-.672.668-.962 1.04-.63.84-.8 1.915-1.4 2.767-1.05 1.516-3.1 1.885-4.926 2.13.538-.07.092-3.67 0-4-.357-1.662-.74-1.628-2.343-1.773z" class="F"/><path d="M360 68.47c-.647-1.067.668-2.457.235-3.624-.4-1.075-1.986-1.26-2.52-2.263-.42-.8 0-1.806-.168-2.7-.37-1.157-1.447-1.94-2.662-1.932a9.5 9.5 0 0 0-3.439.76 13.2 13.2 0 0 1-5.665.873 5.94 5.94 0 0 1-4.678-2.969 1.68 1.68 0 0 1-.214-.815c.034-.63.613-1.062.987-1.566.655-.878.73-2.074 1.327-3 1.218-1.864 3.893-1.818 6.118-1.827 3.275 0 6.534-.613 9.81-.5s6.72 1.037 8.9 3.5c2.6 2.96 2.72 7.294 2.7 11.24 0 1.625-.067 3.393-1.1 4.648-.3.365-.672.668-.962 1.04-.63.84-.8 1.915-1.4 2.767-1.05 1.516-3.1 1.885-4.926 2.13.538-.07.092-3.67 0-4-.357-1.68-.74-1.63-2.343-1.773z" fill="#281c1c"/><use xlink:href="#C" class="F"/><use xlink:href="#C" x="0.4" fill="#e59e00"/><use xlink:href="#D" class="H"/><use xlink:href="#D" class="E"/><use xlink:href="#E" class="H"/><use xlink:href="#E" class="E"/><path d="M386.88 275.95a1.2 1.2 0 0 0 .689-.8 1.18 1.18 0 0 1-.689 1.4c-2.4 1.205-16.26 2.007-23.1-3.212v-.6c6.836 5.22 20.685 4.418 23.1 3.212zm-62.44.8c4.2 1 19.274-1.205 20.677-3.616v.6c-1.407 2.4-16.46 4.62-20.677 3.616-1.722-.42-2.272-1.26-2.1-2.18.135.68.765 1.243 2.1 1.58z" opacity=".4" fill="#fff"/><path d="M348.93 130.51s-4.418-1.407-5.623 0-11.506 4.7-11.506 4.7" class="F"/><g class="C"><use xlink:href="#F"/><use xlink:href="#F" y="0.453"/><use xlink:href="#F" y="0.453" class="F"/><path d="M320.42 76.254h-21.48V75.8h21.48z"/><use xlink:href="#F" y="1.356"/><use xlink:href="#F" y="1.356" class="F"/><use xlink:href="#F" y="1.81"/><use xlink:href="#F" y="2.259"/><use xlink:href="#F" y="2.259" class="F"/><use xlink:href="#F" y="2.713"/><use xlink:href="#F" y="3.163"/><use xlink:href="#F" y="3.163" class="F"/><use xlink:href="#F" y="-3.612"/></g><path d="M330.65 74.733l-16.517-13.725.3-.35 16.517 13.725zm-15.05-7.226l-16.517-13.725.3-.35L315.9 67.158z" class="B"/><g class="C"><use xlink:href="#F" y="-3.162"/><use xlink:href="#F" y="-3.162" class="F"/><use xlink:href="#F" y="-2.705"/><use xlink:href="#F" y="-2.255"/><use xlink:href="#F" y="-2.255" class="F"/><use xlink:href="#F" y="-1.807"/><use xlink:href="#F" y="-1.352"/><use xlink:href="#F" y="-1.352" class="F"/><path d="M320.42 74.444h-21.48V74h21.48z"/><use xlink:href="#F" y="-0.45"/><use xlink:href="#F" y="-0.45" class="F"/><path d="M303.92 93.935l-7.695-1.43 2.785-15 7.695 1.43z"/></g><g transform="matrix(.182579 -.983191 .983191 .182579 299.41 88.635)"><ellipse cx="3.212" cy="1.604" rx="3.212" ry="1.604" class="B"/><ellipse cx="3.212" cy="1.604" rx="3.212" ry="1.604" class="D"/></g><path d="M305.24 125.59l-7.695-1.43 2.785-15 7.695 1.43z" class="C"/><g transform="matrix(.182579 -.983191 .983191 .182579 300.72 120.291)"><ellipse cx="3.212" cy="1.604" rx="3.212" ry="1.604" class="B"/><ellipse cx="3.212" cy="1.604" rx="3.212" ry="1.604" class="D"/></g><use xlink:href="#G" class="C"/><g transform="matrix(.478845 -.877899 .877899 .478845 272.26 53.585)"><ellipse cx="1.608" cy="3.22" rx="1.608" ry="3.22" class="B"/><ellipse cx="1.608" cy="3.22" rx="1.608" ry="3.22" class="D"/></g><use xlink:href="#G" x="-29.46" y="135.848" class="C"/><g transform="matrix(.476 -.879 .879 .476 241.46 189.251)"><ellipse cx="1.604" cy="3.212" rx="1.604" ry="3.212" class="B"/><ellipse cx="1.604" cy="3.212" rx="1.604" ry="3.212" class="D"/></g><use xlink:href="#G" x="-47.48" y="23.743" class="C"/><g transform="matrix(.476 -.879 .879 .476 223.43 77.131)"><ellipse cx="1.604" cy="3.212" rx="1.604" ry="3.212" class="B"/><ellipse cx="1.604" cy="3.212" rx="1.604" ry="3.212" class="D"/></g><use xlink:href="#G" x="-24.9" y="-0.002" class="C"/><g transform="matrix(.476 -.879 .879 .476 246.02 53.386)"><ellipse cx="1.604" cy="3.212" rx="1.604" ry="3.212" class="B"/><ellipse cx="1.604" cy="3.212" rx="1.604" ry="3.212" class="D"/></g><path d="M259.58 75.215l7.78-.853 1.663 15.164-7.78.853z" class="C"/><g transform="matrix(.994 -.109 .109 .994 262.26 79.366)"><ellipse cx="1.604" cy="3.212" rx="1.604" ry="3.212" class="B"/><ellipse cx="1.604" cy="3.212" rx="1.604" ry="3.212" class="D"/></g><path d="M312.93 158.26l7.78-.853 1.663 15.164-7.78.853z" class="C"/><g transform="matrix(.994 -.109 .109 .994 315.61 162.411)"><ellipse cx="1.604" cy="3.212" rx="1.604" ry="3.212" class="B"/><ellipse cx="1.604" cy="3.212" rx="1.604" ry="3.212" class="D"/></g><use xlink:href="#G" x="-32.81" y="60.228" class="C"/><g transform="matrix(.476 -.879 .879 .476 238.1 113.621)"><ellipse cx="1.604" cy="3.212" rx="1.604" ry="3.212" class="B"/><ellipse cx="1.604" cy="3.212" rx="1.604" ry="3.212" class="D"/></g><use xlink:href="#G" x="-66.68" y="50.558" class="C"/><g transform="matrix(.478845 -.877899 .877899 .478845 205.35 104.381)"><ellipse cx="1.608" cy="3.22" rx="1.608" ry="3.22" class="B"/><ellipse cx="1.608" cy="3.22" rx="1.608" ry="3.22" class="D"/></g><use xlink:href="#G" x="-77.51" y="213.368" class="C"/><g transform="matrix(.476 -.879 .879 .476 193.4 266.751)"><ellipse cx="1.604" cy="3.212" rx="1.604" ry="3.212" class="B"/><ellipse cx="1.604" cy="3.212" rx="1.604" ry="3.212" class="D"/></g><use xlink:href="#H" class="B"/><use xlink:href="#H" class="C"/><g transform="matrix(.182407 -.983223 .983223 .182407 185.75 268.701)"><ellipse cx="1.604" cy="3.212" rx="1.604" ry="3.212" class="B"/><ellipse cx="1.604" cy="3.212" rx="1.604" ry="3.212" class="D"/></g><use xlink:href="#H" x="1.4" y="4.62" class="C"/><g transform="matrix(.182407 -.983223 .983223 .182407 187.16 273.311)"><ellipse cx="1.604" cy="3.212" rx="1.604" ry="3.212" class="B"/><ellipse cx="1.604" cy="3.212" rx="1.604" ry="3.212" class="D"/></g><use xlink:href="#G" x="-61.68" y="233.148" class="C"/><g transform="matrix(.476 -.879 .879 .476 209.24 286.541)"><ellipse cx="1.604" cy="3.212" rx="1.604" ry="3.212" class="B"/><ellipse cx="1.604" cy="3.212" rx="1.604" ry="3.212" class="D"/></g><use xlink:href="#H" x="15.84" y="19.78" class="B"/><use xlink:href="#H" x="15.84" y="19.78" class="C"/><g transform="matrix(.182407 -.983223 .983223 .182407 201.58 288.481)"><ellipse cx="1.604" cy="3.212" rx="1.604" ry="3.212" class="B"/><ellipse cx="1.604" cy="3.212" rx="1.604" ry="3.212" class="D"/></g><use xlink:href="#H" x="17.24" y="24.4" class="C"/><g transform="matrix(.182407 -.983223 .983223 .182407 202.99 293.101)"><ellipse cx="1.604" cy="3.212" rx="1.604" ry="3.212" class="B"/><ellipse cx="1.604" cy="3.212" rx="1.604" ry="3.212" class="D"/></g><use xlink:href="#G" x="-37.94" y="220.398" class="C"/><g transform="matrix(.476 -.879 .879 .476 232.97 273.791)"><ellipse cx="1.604" cy="3.212" rx="1.604" ry="3.212" class="B"/><ellipse cx="1.604" cy="3.212" rx="1.604" ry="3.212" class="D"/></g><use xlink:href="#H" x="39.58" y="7.04" class="B"/><use xlink:href="#H" x="39.58" y="7.04" class="C"/><g transform="matrix(.182407 -.983223 .983223 .182407 225.32 275.731)"><ellipse cx="1.604" cy="3.212" rx="1.604" ry="3.212" class="B"/><ellipse cx="1.604" cy="3.212" rx="1.604" ry="3.212" class="D"/></g><use xlink:href="#H" x="40.98" y="11.66" class="C"/><g transform="matrix(.182407 -.983223 .983223 .182407 226.73 280.351)"><ellipse cx="1.604" cy="3.212" rx="1.604" ry="3.212" class="B"/><ellipse cx="1.604" cy="3.212" rx="1.604" ry="3.212" class="D"/></g></svg>