<svg xmlns="http://www.w3.org/2000/svg" viewBox="0 0 888 708.8"><style><![CDATA[.j{fill:#f5f5f5}.k{enable-background:new}.l{fill:#029e00}.m{fill:#ff69b4}.n{fill:#7cfcff}]]></style><ellipse cx="444.3" cy="649.1" rx="441" ry="59.7" opacity=".5" fill="#e3e6f0" class="k"/><linearGradient id="A" x1="444" x2="444" y1="377.21" y2="0" gradientUnits="userSpaceOnUse"><stop offset="0" stop-color="gray" stop-opacity=".25"/><stop offset=".54" stop-color="gray" stop-opacity=".12"/><stop offset="1" stop-color="gray" stop-opacity=".1"/></linearGradient><path d="M0 0h888v377.2H0z" fill="url(#A)"/><path d="M9.9 2.7h869.4v370H9.9z" fill="#eee"/><linearGradient id="B" x1="565.58" x2="565.58" y1="184.63" y2="139.97" gradientUnits="userSpaceOnUse"><stop offset="0" stop-color="gray" stop-opacity=".25"/><stop offset=".54" stop-color="gray" stop-opacity=".12"/><stop offset="1" stop-color="gray" stop-opacity=".1"/></linearGradient><path d="M542.5 140h46.1v44.7h-46.1z" fill="url(#B)"/><path d="M543.3 140.7h44.5v43.1h-44.5z" class="j"/><linearGradient id="C" x1="296.26" x2="296.26" y1="331.11" y2="286.45" gradientUnits="userSpaceOnUse"><stop offset="0" stop-color="gray" stop-opacity=".25"/><stop offset=".54" stop-color="gray" stop-opacity=".12"/><stop offset="1" stop-color="gray" stop-opacity=".1"/></linearGradient><path d="M273.2 286.5h46.1v44.7h-46.1z" fill="url(#C)"/><path d="M274 287.2h44.5v43.1H274z" class="j"/><linearGradient id="D" x1="698.58" x2="698.58" y1="174.13" y2="129.47" gradientUnits="userSpaceOnUse"><stop offset="0" stop-color="gray" stop-opacity=".25"/><stop offset=".54" stop-color="gray" stop-opacity=".12"/><stop offset="1" stop-color="gray" stop-opacity=".1"/></linearGradient><path d="M675.5 129.5h46.1v44.7h-46.1z" fill="url(#D)"/><path d="M676.3 130.2h44.5v43.1h-44.5z" class="j"/><linearGradient id="E" x1="565.74" x2="565.74" y1="302.41" y2="257.75" gradientUnits="userSpaceOnUse"><stop offset="0" stop-color="gray" stop-opacity=".25"/><stop offset=".54" stop-color="gray" stop-opacity=".12"/><stop offset="1" stop-color="gray" stop-opacity=".1"/></linearGradient><path d="M542.7 257.8h46.1v44.7h-46.1z" fill="url(#E)"/><path d="M543.5 258.5H588v43.1h-44.5z" class="j"/><linearGradient id="F" x1="272.78" x2="272.78" y1="77.68" y2="33.02" gradientUnits="userSpaceOnUse"><stop offset="0" stop-color="gray" stop-opacity=".25"/><stop offset=".54" stop-color="gray" stop-opacity=".12"/><stop offset="1" stop-color="gray" stop-opacity=".1"/></linearGradient><path d="M249.7 33h46.1v44.7h-46.1z" fill="url(#F)"/><path d="M250.5 33.8H295v43.1h-44.5z" class="j"/><linearGradient id="G" x1="721.32" x2="721.32" y1="67.68" y2="23.02" gradientUnits="userSpaceOnUse"><stop offset="0" stop-color="gray" stop-opacity=".25"/><stop offset=".54" stop-color="gray" stop-opacity=".12"/><stop offset="1" stop-color="gray" stop-opacity=".1"/></linearGradient><path d="M698.3 23h46.1v44.7h-46.1z" fill="url(#G)"/><path d="M699.1 23.8h44.5v43.1h-44.5z" class="j"/><linearGradient id="H" x1="830.5" x2="830.5" y1="228.72" y2="184.06" gradientUnits="userSpaceOnUse"><stop offset="0" stop-color="gray" stop-opacity=".25"/><stop offset=".54" stop-color="gray" stop-opacity=".12"/><stop offset="1" stop-color="gray" stop-opacity=".1"/></linearGradient><path d="M807.4 184.1h46.1v44.7h-46.1z" fill="url(#H)"/><path d="M808.2 184.8h44.5v43.1h-44.5z" class="j"/><linearGradient id="I" x1="107.18" x2="107.18" y1="61.31" y2="16.65" gradientUnits="userSpaceOnUse"><stop offset="0" stop-color="gray" stop-opacity=".25"/><stop offset=".54" stop-color="gray" stop-opacity=".12"/><stop offset="1" stop-color="gray" stop-opacity=".1"/></linearGradient><path d="M84.1 16.6h46.1v44.7H84.1z" fill="url(#I)"/><path d="M84.9 17.4h44.5v43.1H84.9z" class="j"/><linearGradient id="J" x1="627.6" x2="627.6" y1="100.82" y2="56.16" gradientUnits="userSpaceOnUse"><stop offset="0" stop-color="gray" stop-opacity=".25"/><stop offset=".54" stop-color="gray" stop-opacity=".12"/><stop offset="1" stop-color="gray" stop-opacity=".1"/></linearGradient><path d="M604.5 56.2h46.1v44.7h-46.1z" fill="url(#J)"/><path d="M605.3 56.9h44.5V100h-44.5z" class="n"/><linearGradient id="K" x1="348.28" x2="348.28" y1="195.44" y2="150.78" gradientUnits="userSpaceOnUse"><stop offset="0" stop-color="gray" stop-opacity=".25"/><stop offset=".54" stop-color="gray" stop-opacity=".12"/><stop offset="1" stop-color="gray" stop-opacity=".1"/></linearGradient><path d="M325.2 150.8h46.1v44.7h-46.1z" fill="url(#K)"/><path d="M326 151.6h44.5v43.1H326z" class="n"/><linearGradient id="L" x1="503.86" x2="503.86" y1="244.57" y2="199.91" gradientUnits="userSpaceOnUse"><stop offset="0" stop-color="gray" stop-opacity=".25"/><stop offset=".54" stop-color="gray" stop-opacity=".12"/><stop offset="1" stop-color="gray" stop-opacity=".1"/></linearGradient><path d="M480.8 199.9h46.1v44.7h-46.1z" fill="url(#L)"/><path d="M481.6 200.7h44.5v43.1h-44.5z" class="n"/><linearGradient id="M" x1="557.8" x2="557.8" y1="77.88" y2="33.22" gradientUnits="userSpaceOnUse"><stop offset="0" stop-color="gray" stop-opacity=".25"/><stop offset=".54" stop-color="gray" stop-opacity=".12"/><stop offset="1" stop-color="gray" stop-opacity=".1"/></linearGradient><path d="M534.7 33.2h46.1v44.7h-46.1z" fill="url(#M)"/><path d="M535.5 34H580v43.1h-44.5z" class="l"/><linearGradient id="N" x1="638.78" x2="638.78" y1="273.49" y2="228.83" gradientUnits="userSpaceOnUse"><stop offset="0" stop-color="gray" stop-opacity=".25"/><stop offset=".54" stop-color="gray" stop-opacity=".12"/><stop offset="1" stop-color="gray" stop-opacity=".1"/></linearGradient><path d="M615.7 228.8h46.1v44.7h-46.1z" fill="url(#N)"/><path d="M616.5 229.6H661v43.1h-44.5z" class="l"/><linearGradient id="O" x1="360.36" x2="360.36" y1="77.88" y2="33.22" gradientUnits="userSpaceOnUse"><stop offset="0" stop-color="gray" stop-opacity=".25"/><stop offset=".54" stop-color="gray" stop-opacity=".12"/><stop offset="1" stop-color="gray" stop-opacity=".1"/></linearGradient><path d="M337.3 33.2h46.1v44.7h-46.1z" fill="url(#O)"/><path d="M338.1 34h44.5v43.1h-44.5z" class="l"/><linearGradient id="P" x1="421.32" x2="421.32" y1="321.72" y2="277.06" gradientUnits="userSpaceOnUse"><stop offset="0" stop-color="gray" stop-opacity=".25"/><stop offset=".54" stop-color="gray" stop-opacity=".12"/><stop offset="1" stop-color="gray" stop-opacity=".1"/></linearGradient><path d="M398.3 277.1h46.1v44.7h-46.1z" fill="url(#P)"/><path d="M399 277.8h44.5v43.1H399z" class="l"/><linearGradient id="Q" x1="272.69" x2="272.69" y1="214.32" y2="139.24" gradientUnits="userSpaceOnUse"><stop offset="0" stop-color="gray" stop-opacity=".25"/><stop offset=".54" stop-color="gray" stop-opacity=".12"/><stop offset="1" stop-color="gray" stop-opacity=".1"/></linearGradient><path d="M278.7 148.4v2.7l-7.7-.7V167l-20.2 28.7-1.3-.7-2.8 3.3 26.1 16v-6l-1.5-.8c1.8-6.6 9.3-32.9 13.6-36.4 0 0 7.7-5.3 11.9-12.6s2.2-32.7-18.1-10.1z" fill="url(#Q)"/><linearGradient id="R" x1="173.24" x2="173.24" y1="656.53" y2="94.23" gradientUnits="userSpaceOnUse"><stop offset="0" stop-color="gray" stop-opacity=".25"/><stop offset=".54" stop-color="gray" stop-opacity=".12"/><stop offset="1" stop-color="gray" stop-opacity=".1"/></linearGradient><path d="M237.8 211.2s-28-5.7-43.4-11.8c-7.2-2.8-14.8-4.4-22.6-4.7l-16.8-.5-8.4-4.9 2.6-6.5c.3-.1.5-.2.8-.4l.2-1.4c1.4-.3 2.7-.7 4-1.2-.4 3.3 20.1-13.6 20.1-13.6l-.6.3-.1-1-.2.1c9.5-12.9 9.8-30.5.7-43.7l.6-.6v-16.2l-.7-.6v-.1c-13.9-12.5-32.9-11.5-46.7-8.3-10.3 2.4-18 10.9-19.3 21.4-18.4 4.9-12.3 14.2-12.5 17.8-1.4 17.6 4.4 27.9 10.8 33.9 2.7 2.6 5.7 4.8 9.1 6.4l-4 7.8h-1.2l-3.3 9.3h-.2l-3.6 2.3c-22.2 14.4-33.3 40.1-28.5 65.5 0 0 20 37.7 13.8 75.5-2.1 12.7-1.2 20.4.9 25.2-.6 5.1-2.1 10.1-4.3 14.7-7.6 15.3-7.6 31.3 2.1 49.9l2.8 96.4s3.4 45.2 0 54.5 1.4 53.9 1.4 53.9h-.7v24.6l51.6 1.3s12-5.5 14.2-9.7l25.9 7.7s28.5-4.8 11.8-11.3c-12.5-4.9-15.5-11.9-16.3-15.1l40.8-113.3s-7.6-96.4-35.1-129.7l-2.8-19.6h.4L187 251l.5.1h-.1c15.1 2.3 30.4 2.1 45.4-.7 4.5-.8 8.9-2 13.1-3.6l.8-.3h.2c3.2-1.3 6.2-2.9 9-4.9l17.2-25.4-26.2-17.4-9.1 12.4zm-108 389.5l13-88.4V467l23.4 47.2L141 616.5l-1.3-.4-5.8 20.2c-1.9-1.5-3.3-3.5-4.2-5.7l.1-29.9z" fill="url(#R)"/><linearGradient id="S" x1="494.8" x2="494.8" y1="139.13" y2="94.47" gradientUnits="userSpaceOnUse"><stop offset="0" stop-color="gray" stop-opacity=".25"/><stop offset=".54" stop-color="gray" stop-opacity=".12"/><stop offset="1" stop-color="gray" stop-opacity=".1"/></linearGradient><path d="M471.7 94.5h46.1v44.7h-46.1z" fill="url(#S)"/><path d="M472.5 95.2H517v43.1h-44.5z" class="m"/><path d="M244.3 112.7h46.1v44.7h-46.1z" opacity=".1" class="k"/><linearGradient id="T" x1="261.88" x2="261.88" y1="153.68" y2="109.02" gradientUnits="userSpaceOnUse"><stop offset="0" stop-color="gray" stop-opacity=".25"/><stop offset=".54" stop-color="gray" stop-opacity=".12"/><stop offset="1" stop-color="gray" stop-opacity=".1"/></linearGradient><path d="M238.8 109h46.1v44.7h-46.1z" fill="url(#T)"/><path d="M239.6 109.8h44.5v43.1h-44.5z" class="m"/><linearGradient id="U" x1="830.52" x2="830.52" y1="110.92" y2="66.26" gradientUnits="userSpaceOnUse"><stop offset="0" stop-color="gray" stop-opacity=".25"/><stop offset=".54" stop-color="gray" stop-opacity=".12"/><stop offset="1" stop-color="gray" stop-opacity=".1"/></linearGradient><path d="M807.5 66.3h46.1V111h-46.1z" fill="url(#U)"/><path d="M808.3 67h44.5v43.1h-44.5z" class="m"/><linearGradient id="V" x1="744.1" x2="744.1" y1="322" y2="277.34" gradientUnits="userSpaceOnUse"><stop offset="0" stop-color="gray" stop-opacity=".25"/><stop offset=".54" stop-color="gray" stop-opacity=".12"/><stop offset="1" stop-color="gray" stop-opacity=".1"/></linearGradient><path d="M721 277.3h46.1V322H721z" fill="url(#V)"/><path d="M721.8 278.1h44.5v43.1h-44.5z" class="m"/><path d="M266.7 153.1v16.4l-19.6 28.7 19.6 12.7s8.7-33.5 13.4-37.5c0 0 7.4-5.3 11.4-12.5s2-32.2-17.4-9.9v1.7l-7.4.4zM111 192.3l7.7-15.5c.5-.9 1.4-1.5 2.4-1.6l29.4-1.5c1.6-.1 2.9 1.1 3 2.7 0 .4 0 .8-.2 1.2l-7.6 19.6c-.5 1.2-1.7 1.9-2.9 1.8l-29.6-2.6c-1.6-.1-2.7-1.5-2.6-3.1.1-.4.2-.7.4-1z" fill="#fda57d"/><path d="M113.1 185.6l-5 14.7 51.3-1.9-19.7-11.8zm130.4 14.8l2.7-3.3 22.3 13.2v5.9z" fill="#edeef9"/><path d="M92.6 345.7c2.1 10.1.8 20.7-3.5 30.1-7.2 15.1-7.2 30.9 2 49.3l2.6 95.3s3.3 44.7 0 53.9 1.3 53.2 1.3 53.2h36.8v-29.6l12.5-87.4v-44.7l22.3 46.6L141 620.2l33.5 13.8 42-120.9S209.3 417.8 183 385l-4.9-35.8-85.5-3.5z" fill="#072f70"/><g fill="#333"><path d="m94.4 651.7v-24.3h37.5s2.6 9.9 19.7 11.9-7.9 13.8-7.9 13.8l-49.3-1.4z"/><path d="m134.9 636.6 6.5-23.4 36.1 10s-.1 10.2 15.8 16.7-11.3 11.2-11.3 11.2l-47.1-14.5z"/></g><path d="m178.2 351.2-85.6-3.5c1.1 5.1 1.3 10.3.6 15.5 3.9 9.2 12.3 6.7 12.3 6.7l74.9-2.3-2.2-16.4z" opacity=".1" class="k"/><path d="M109.8 194.8l-3.4 2.3a64.14 64.14 0 0 0-27.1 64.7s19.1 37.3 13.1 74.5 13.1 31.5 13.1 31.5l75.2-2.3 5.6-113.1s45.3 6.5 65.7-9.3l16.4-25.1-25-17.2-8.5 12.2s-26.8-5.6-41.4-11.6c-6.9-2.8-14.2-4.4-21.6-4.6l-62.1-2z" fill="#e59e00"/><path d="M110.5 376.8s-4.6 23 21.7 61.1m54.5-185.3s31.5-10.5 45.3-10.5 11.5 6 11.5 6-22 9.8-56.8 4.5zM151 175l-12.5 1.5c-.4 0-.8.5-1 1.3 2.8 5 6.2 7.9 10 7.9 1.3 0 2.6-.4 3.8-1l1-5.8c.2-1.9-.5-4-1.3-3.9z" opacity=".1" class="k"/><circle transform="matrix(.082481 -.9966 .9966 .082481 -15.18 275.79)" cx="142.2" cy="146.1" r="38.3" fill="#fda57d"/><path d="m174.8 108.5v16l-1.9 1.8c-2.7 2.5-2.9 6.7-.4 9.4.6.7 1.4 1.3 2.3 1.6 0 0-3.2 25.5-7.2 35.1 0 0-6.2.7-4.8-4 5.2-17.2-5.2-14-7.6-10.8s.4 11.6.4 11.6 7.6 14-32.3 10.8c0 0-26.3-5.6-23.6-41.1.3-3.6-5.6-12.8 12-17.6 1.1-10.2 8.5-18.6 18.5-21 13.1-3.2 31.3-4.1 44.6 8.2z" opacity=".1" class="k"/><path d="m174.1 107.8v16l-1.9 1.8c-2.7 2.5-2.9 6.7-.4 9.4.6.7 1.4 1.3 2.3 1.6 0 0-3.2 25.5-7.2 35.1 0 0-6.2.7-4.8-4 5.2-17.2-5.2-14-7.6-10.8s.4 11.6.4 11.6 7.6 14-32.3 10.8c0 0-26.3-5.6-23.6-41.1.3-3.6-5.6-12.8 12-17.6 1.1-10.2 8.5-18.6 18.5-21 13.2-3.1 31.4-4.1 44.6 8.2z" fill="#72351c"/></svg>